<?xml version="1.0" encoding="utf-8"?>
<!-- Generator: Adobe Illustrator 16.0.0, SVG Export Plug-In . SVG Version: 6.00 Build 0)  -->
<!DOCTYPE svg PUBLIC "-//W3C//DTD SVG 1.1//EN" "http://www.w3.org/Graphics/SVG/1.1/DTD/svg11.dtd">
<svg version="1.1" id="Layer_1" xmlns="http://www.w3.org/2000/svg" xmlns:xlink="http://www.w3.org/1999/xlink" x="0px" y="0px"
	 width="637.658px" height="469.597px" viewBox="0 0 637.658 469.597" enable-background="new 0 0 637.658 469.597"
	 xml:space="preserve">
<g>
	<path fill="#FFFFFF" d="M319.5,469.597c-84.64,0-153.5-80.972-153.5-180.5c0-99.528,68.86-180.5,153.5-180.5
		c84.641,0,153.5,80.972,153.5,180.5C473,388.625,404.141,469.597,319.5,469.597z M319.5,118.597
		c-79.126,0-143.5,76.486-143.5,170.5c0,94.014,64.374,170.5,143.5,170.5S463,383.111,463,289.097
		C463,195.083,398.626,118.597,319.5,118.597z"/>
</g>
<g>
	<path fill="#FFFFFF" d="M385.132,63.01l-16.747,2.073l-1.382-11.165l5.582-0.691l0.691,5.583l5.582-0.691l-1.382-11.165
		l4.891-6.273L385.132,63.01z M376.094,35.789l5.582-0.691l0.691,5.583l-5.582,0.691L376.094,35.789z"/>
	<path fill="#FFFFFF" d="M383.072,34.925l16.746-2.074l3.456,27.912l-16.747,2.074l-2.073-16.747l4.892-6.274l2.073,16.747
		l5.582-0.691l-2.073-16.747l-11.165,1.382L383.072,34.925z"/>
	<path fill="#FFFFFF" d="M401.215,32.679l5.582-0.691l0.691,5.583l-5.583,0.691L401.215,32.679z M407.488,37.57l2.073,16.747
		l5.583-0.691l-2.766-22.33l5.582-0.691l3.456,27.912l-16.747,2.074l-2.073-16.747L407.488,37.57z"/>
	<path fill="#FFFFFF" d="M419.357,30.433l5.582-0.691l0.691,5.583l-5.582,0.691L419.357,30.433z M425.631,35.324l2.073,16.747
		l5.583-0.691l-2.766-22.33l5.583-0.691l2.765,22.33l5.582-0.691l-2.765-22.33l5.583-0.691l2.765,22.33l-4.892,6.273l-22.329,2.765
		l-2.073-16.747L425.631,35.324z"/>
	<path fill="#FFFFFF" d="M465.412,24.73l5.582-0.691l0.691,5.582l-5.583,0.691L465.412,24.73z M471.686,29.621l0.691,5.583
		l5.582-0.691l-1.383-11.165l5.582-0.691l3.456,27.912l-5.582,0.691l-1.382-11.165l-5.582,0.691l1.382,11.165l-5.583,0.691
		l-2.073-16.747L471.686,29.621z"/>
	<path fill="#FFFFFF" d="M483.555,22.483l16.746-2.073l3.456,27.912l-16.747,2.073l-2.073-16.747l4.892-6.273l2.074,16.747
		l5.582-0.691l-2.074-16.747l-11.165,1.383L483.555,22.483z"/>
	<path fill="#FFFFFF" d="M501.697,20.237l16.746-2.074l3.456,27.912l-16.747,2.074l-2.073-16.747l4.892-6.274l2.074,16.747
		l5.582-0.691l-2.074-16.747l-11.165,1.382L501.697,20.237z"/>
	<path fill="#FFFFFF" d="M520.531,23.573l-0.691-5.583l16.748-2.074l0.69,5.583L520.531,23.573z M526.113,22.882l-4.891,6.273
		l2.073,16.747l5.582-0.691l-1.382-11.165l8.373-1.037l-0.691-5.582l-8.373,1.037L526.113,22.882z"/>
	<path fill="#FFFFFF" d="M537.982,15.745l16.748-2.074L557.495,36l-4.893,6.274l-11.164,1.382l-2.073-16.747l4.891-6.274
		l2.074,16.747l5.582-0.691l-2.074-16.747l-11.164,1.383L537.982,15.745z"/>
	<path fill="#FFFFFF" d="M572.873,11.424l5.582-0.691l0.69,5.583l-5.582,0.691L572.873,11.424z M579.146,16.316l0.691,5.583
		l5.583-0.691l-1.383-11.165l5.582-0.691l3.456,27.912l-5.582,0.691l-1.382-11.165l-5.583,0.691l1.382,11.165l-5.582,0.691
		l-2.073-16.747L579.146,16.316z"/>
	<path fill="#FFFFFF" d="M596.598,8.487l0.69,5.583l-5.582,0.691L596.598,8.487z M600.053,36.399l-5.582,0.691l-2.073-16.747
		l4.891-6.274L600.053,36.399z"/>
	<path fill="#FFFFFF" d="M598.684,13.896l-0.691-5.583L614.74,6.24l0.691,5.583L598.684,13.896z M604.267,13.206l-4.892,6.273
		l2.073,16.747l16.748-2.074l-0.69-5.582l-11.165,1.382l-0.691-5.583l8.373-1.037l-0.691-5.582l-8.373,1.037L604.267,13.206z"/>
	<path fill="#FFFFFF" d="M616.137,6.068l16.746-2.074l1.037,8.374l-4.892,6.274l-5.582,0.691l4.891-6.274l-0.346-2.791
		l-11.164,1.383L616.137,6.068z M622.409,10.959l2.765,22.33l-5.582,0.691l-2.073-16.747L622.409,10.959z M630.756,32.598
		l-1.728-13.956l5.583-0.691l1.728,13.956L630.756,32.598z"/>
</g>
<path fill="#FFFFFF" d="M304.261,69.703c-0.72,0.416-1.374,1.04-1.133,1.874c0.399,1.439,1.023,2.879,1.593,4.327
	c0.526,1.31,0.999,2.628,1.455,3.924c0.466,1.332,0.841,2.641,1.256,3.98c0.721,2.381,1.302,4.735,1.642,7.067
	c0.297,2.437,0.341,4.813,0.413,7.188c0.021,0.445,0.15,0.873,0.921,1.139c0.091,0.021,0.161,0.035,0.231,0.048
	c0.037,0.03,0.071,0.074,0.109,0.104c0.179,0.117,0.368,0.208,0.561,0.287c-0.132,0.142-0.27,0.297-0.402,0.438
	c-0.275,0.31-0.873,1.106,0.228,1.491c0.55,0.192,1.188,0.043,1.568-0.09c0.202-0.068,0.362-0.154,0.522-0.24
	c0.161-0.085,0.304-0.193,0.432-0.322c1.57-1.651,3.178-3.273,4.851-4.869c1.254-1.177,2.622-2.265,4.038-3.348
	c1.593-1.085,3.208-2.163,4.915-3.158c1.013-0.583,2.038-1.133,3.106-1.663c0.667-0.348,1.367-0.651,2.073-0.968
	c0.903-0.373,1.779-0.741,2.705-1.104c1.219-0.47,2.406-0.983,3.75-1.328c-0.033,0.017-0.08,0.013-0.113,0.029
	c0.686-0.204,1.269-0.465,1.713-0.886c0.32-0.293,0.53-0.629,0.618-1.03c0.066-0.289-0.061-0.596-0.392-0.895
	c-0.396-0.265-0.822-0.391-1.273-0.394c-1.665-0.04-2.971,0.456-4.205,0.964c-0.546,0.231-1.09,0.462-1.614,0.703
	c-1.16,0.509-2.341,1.01-3.446,1.571c-1.068,0.531-2.114,1.071-3.149,1.646c-1.035,0.575-1.984,1.184-2.966,1.811
	c-1.353,0.867-2.614,1.815-3.876,2.765c-0.799,0.611-1.597,1.22-2.336,1.869c0.538-1.332,1.081-2.676,1.618-4.007
	c0.318-0.789,0.701-1.551,1.083-2.314c0.572-1.167,1.101-2.353,1.694-3.511c0.65-1.301,1.408-2.559,2.124-3.833
	c0.631-1.129,1.348-2.222,2.044-3.325c0.289-0.469,0.65-0.925,0.961-1.386c0.422-0.611,0.84-1.21,1.283-1.812
	c0.634-0.887,1.376-1.73,2.076-2.591c0.79-0.838,1.558-1.686,2.349-2.524c0.758-0.822,1.662-1.57,2.48-2.352
	c0.812-0.77,1.75-1.474,2.622-2.205c0.612-0.521,1.277-0.988,1.948-1.469c2.174-1.468,4.408-2.897,6.701-4.287
	c1.03-0.622,2.085-1.249,3.169-1.818c0.641-0.343,1.264-0.708,1.943-1.02c0.374-0.181,0.774-0.364,1.147-0.544
	c1.044-0.405,2.081-0.799,3.177-1.153c0.868-0.282,1.788-0.511,2.709-0.741c1.414-0.332,2.828-0.663,4.205-1.024
	c0.053-0.009,0.112-0.031,0.165-0.039c0.247-0.051,0.472-0.111,0.697-0.17l0,0c0.83-0.251,1.561-0.572,2.092-1.08
	c0.415-0.344,0.663-0.769,0.743-1.279c0.098-0.367-0.079-0.738-0.486-1.098c-0.498-0.321-1.01-0.483-1.564-0.48
	c-2.242-0.168-4.104,0.463-5.897,0.927c-1.671,0.409-3.326,0.838-4.889,1.351c-0.84,0.277-1.646,0.598-2.448,0.906
	c-1.102,0.428-2.137,0.941-3.19,1.434c-1.42,0.659-2.706,1.418-4.013,2.169c-1.206,0.686-2.368,1.389-3.515,2.115
	c-1.391,0.896-2.783,1.793-4.136,2.721c-0.762,0.519-1.507,1.061-2.209,1.619c-0.548,0.426-1.14,0.833-1.65,1.29
	c-1.078,0.932-2.201,1.847-3.199,2.828c-0.584,0.577-1.19,1.144-1.773,1.72c-0.462,0.46-0.865,0.959-1.283,1.436
	c-0.594,0.663-1.205,1.304-1.733,1.993c-0.443,0.602-0.904,1.184-1.37,1.777c-0.333,0.452-0.714,0.9-1.025,1.36
	c-0.438,0.651-0.882,1.313-1.298,1.973c-1.494,2.268-2.728,4.642-3.967,7.028c-1.25,2.413-2.343,4.873-3.376,7.373
	c-0.124-0.877-0.29-1.771-0.483-2.661c-0.171-0.82-0.336-1.654-0.572-2.5c-0.426-1.496-0.799-2.999-1.267-4.511
	c-0.498-1.569-0.995-3.138-1.518-4.702c-0.229-0.679-0.505-1.361-0.782-2.044c-0.166-0.397-0.358-0.792-0.578-1.181
	c-0.274-0.501-0.699-1.004-1.108-1.484c-0.375-0.256-0.778-0.374-1.202-0.38c-0.258,0.017-0.511,0.02-0.747,0.045
	C305.213,69.276,304.688,69.455,304.261,69.703z"/>
</svg>
