<?xml version="1.0" encoding="utf-8"?>
<!-- Generator: Adobe Illustrator 16.0.0, SVG Export Plug-In . SVG Version: 6.00 Build 0)  -->
<!DOCTYPE svg PUBLIC "-//W3C//DTD SVG 1.1//EN" "http://www.w3.org/Graphics/SVG/1.1/DTD/svg11.dtd">
<svg version="1.1" id="Layer_1" xmlns="http://www.w3.org/2000/svg" xmlns:xlink="http://www.w3.org/1999/xlink" x="0px" y="0px"
	 width="843.495px" height="174.988px" viewBox="0 0 843.495 174.988" enable-background="new 0 0 843.495 174.988"
	 xml:space="preserve">
<g>
	<path fill="#0E4949" d="M63.111,36.752c0.072,0.531,0.114,1.05,0.127,1.557c0.012,0.507,0.018,1.002,0.018,1.484
		c0,2.535-0.393,4.912-1.177,7.133c-0.785,2.221-1.865,4.26-3.241,6.119c-1.375,1.859-2.999,3.524-4.87,4.997
		s-3.904,2.715-6.101,3.729c-2.197,1.014-4.496,1.792-6.897,2.335c-2.402,0.543-4.81,0.814-7.223,0.814
		c-2.27,0-4.454-0.097-6.554-0.29c-2.1-0.193-4.091-0.29-5.974-0.29c-1.448,0-2.812,0.102-4.091,0.308
		c-1.28,0.205-2.462,0.621-3.548,1.249c-0.893-3.307-1.841-6.306-2.842-8.997c-1.002-2.691-1.925-4.99-2.77-6.897
		C6.979,47.784,5.99,45.792,5,44.03c2.873,1.497,5.751,2.679,8.635,3.548c2.884,0.869,5.63,1.539,8.237,2.01
		c2.607,0.471,4.984,0.772,7.133,0.905c2.148,0.133,3.934,0.199,5.358,0.199c1.593,0,3.198-0.096,4.815-0.29
		c1.617-0.193,3.246-0.495,4.888-0.905c-0.411-0.555-0.833-1.05-1.267-1.484s-0.833-0.784-1.195-1.05
		c-0.435-0.313-0.857-0.58-1.267-0.797c-0.701-0.337-1.647-0.669-2.842-0.996c-1.195-0.326-2.522-0.682-3.982-1.068
		c-1.461-0.386-3.018-0.809-4.671-1.267s-3.294-0.99-4.924-1.593c-1.629-0.603-3.186-1.291-4.671-2.064
		c-1.484-0.772-2.806-1.653-3.964-2.643c-0.917-0.797-1.678-1.66-2.281-2.589c-0.604-0.929-1.081-1.883-1.43-2.86
		c-0.351-0.978-0.604-1.955-0.76-2.933c-0.158-0.978-0.248-1.913-0.272-2.806c-0.845,0.338-1.605,0.664-2.281,0.978
		c-0.676,0.314-1.255,0.58-1.738,0.797l-1.448,0.724c0.869-2.607,2.082-4.912,3.639-6.916c1.557-2.003,3.307-3.741,5.25-5.214
		c1.942-1.472,4.019-2.715,6.227-3.729s4.399-1.847,6.572-2.498c5.069-1.521,10.56-2.39,16.474-2.607
		c1.834,0,3.789-0.073,5.865-0.217c1.786-0.121,3.825-0.308,6.119-0.561C57.511,5.851,59.925,5.483,62.459,5
		c-0.772,1.159-1.394,2.414-1.864,3.766c-0.471,1.352-0.839,2.715-1.104,4.091c-0.266,1.376-0.447,2.734-0.543,4.073
		c-0.097,1.34-0.145,2.565-0.145,3.675c0,0.748,0.012,1.424,0.036,2.027c0.024,0.604,0.06,1.123,0.109,1.557
		c0.048,0.507,0.108,0.966,0.181,1.376c-4.225-1.906-8.34-3.24-12.347-4c-4.007-0.761-7.881-1.141-11.622-1.141
		c-1.279,0-2.498,0.042-3.657,0.126c-1.159,0.085-2.317,0.199-3.476,0.344c0.265,1.159,0.742,2.124,1.43,2.896
		s1.381,1.4,2.082,1.883c0.82,0.555,1.702,0.99,2.643,1.303c1.834,0.579,3.826,1.285,5.974,2.118
		c2.148,0.833,4.296,1.864,6.445,3.096c2.148,1.231,4.211,2.679,6.191,4.345c1.979,1.665,3.717,3.597,5.214,5.793
		c0.917-0.772,1.81-1.623,2.679-2.553C61.554,38.847,62.362,37.839,63.111,36.752z"/>
	<path fill="#0E4949" d="M112.423,19.482c-0.845,0.676-1.642,1.382-2.39,2.118s-1.46,1.515-2.136,2.335
		c2.269,0.435,4.417,1.129,6.444,2.082c2.028,0.954,3.79,2.154,5.286,3.603s2.685,3.132,3.566,5.051
		c0.881,1.919,1.321,4.049,1.321,6.39c0,2.656-0.44,5.051-1.321,7.187c-0.881,2.136-2.1,4.043-3.657,5.721
		c-1.557,1.678-3.398,3.126-5.521,4.345c-2.125,1.219-4.43,2.221-6.916,3.005c-2.486,0.784-5.105,1.37-7.856,1.756
		c-2.752,0.386-5.528,0.58-8.328,0.58c-0.99,0-2.016-0.018-3.077-0.054c-1.062-0.037-2.095-0.091-3.096-0.163
		c-1.002-0.072-1.932-0.175-2.788-0.308c-0.857-0.133-1.575-0.296-2.154-0.489c0.676-0.556,1.322-1.117,1.937-1.684
		c0.616-0.567,1.177-1.141,1.684-1.72c-2.293-0.435-4.448-1.086-6.462-1.956c-2.016-0.869-3.784-1.985-5.304-3.349
		c-1.521-1.364-2.722-2.969-3.603-4.815c-0.881-1.847-1.322-3.965-1.322-6.354c0-2.8,0.513-5.328,1.539-7.585
		c1.025-2.257,2.431-4.266,4.218-6.028c1.786-1.762,3.886-3.271,6.3-4.526c2.414-1.255,5.008-2.293,7.784-3.114
		c2.775-0.82,5.667-1.424,8.671-1.81c3.005-0.386,5.992-0.58,8.961-0.58c1.231,0,2.492,0.031,3.784,0.091
		c1.291,0.061,2.649,0.151,4.073,0.271H112.423z M108.803,38.527c0-2.051-0.44-3.729-1.321-5.033
		c-0.881-1.303-2.046-2.341-3.494-3.114c-0.266,0.628-0.519,1.273-0.76,1.937c-0.241,0.664-0.458,1.346-0.651,2.046
		c-1.69-0.483-3.108-0.809-4.254-0.978c-1.146-0.168-2.106-0.253-2.878-0.253c-1.521,0-3.054,0.253-4.598,0.761
		c-1.545,0.507-2.933,1.237-4.164,2.19s-2.239,2.112-3.023,3.476c-0.785,1.364-1.177,2.903-1.177,4.616
		c0,1.642,0.417,3.145,1.25,4.508c0.833,1.364,1.924,2.625,3.276,3.784c0.217-0.748,0.38-1.508,0.489-2.281
		c0.109-0.772,0.187-1.569,0.235-2.39c1.786,0.821,3.367,1.388,4.743,1.702c1.375,0.314,2.583,0.471,3.621,0.471
		c1.593,0,3.15-0.259,4.67-0.778c1.521-0.519,2.878-1.273,4.073-2.263s2.154-2.19,2.878-3.603S108.803,40.313,108.803,38.527z"/>
	<path fill="#0E4949" d="M185.162,59.599c-3.524,0.266-6.946,0.875-10.265,1.829c-3.319,0.953-6.692,2.263-10.12,3.928
		c-0.531-5.189-1.798-9.98-3.801-14.374c-0.966,0.217-1.943,0.387-2.933,0.507c-0.99,0.121-2.016,0.181-3.077,0.181
		c-0.411,0-0.815,0-1.213,0c-0.398,0-0.803-0.023-1.213-0.072c0.072,3.742,0.217,7.471,0.434,11.188
		c-0.772-0.121-1.545-0.199-2.317-0.235c-0.773-0.036-1.509-0.054-2.208-0.054c-2.39,0-5.009,0.271-7.857,0.814
		c-2.848,0.543-5.914,1.358-9.196,2.444c1.231-3.331,2.287-6.638,3.168-9.921c0.881-3.282,1.575-6.601,2.082-9.957
		c-1.642-1.086-3.048-2.148-4.218-3.186c-1.171-1.038-2.058-1.906-2.661-2.607c1.183,0.338,2.408,0.652,3.675,0.941
		c1.267,0.29,2.54,0.543,3.819,0.76c0.29-2.751,0.435-5.54,0.435-8.363v-1.34c-1.303,0.411-2.595,0.845-3.874,1.303
		c-1.28,0.459-2.559,0.966-3.838,1.521c0.748-2.414,1.123-4.646,1.123-6.698c0-1.713-0.217-3.336-0.652-4.87
		c-0.435-1.533-1.062-2.975-1.883-4.327c5.189-0.724,9.781-1.213,13.776-1.466c3.995-0.253,7.561-0.38,10.699-0.38
		c1.448,0,3.114,0.031,4.996,0.091c1.883,0.061,3.813,0.211,5.793,0.453c1.979,0.241,3.952,0.591,5.92,1.05
		c1.967,0.459,3.771,1.086,5.413,1.883c1.641,0.796,3.047,1.798,4.218,3.005c1.17,1.208,1.96,2.656,2.372,4.345
		c0.555-0.265,1.098-0.531,1.629-0.796c0.531-0.266,1.074-0.567,1.629-0.905c-0.29,1.738-0.773,3.47-1.448,5.196
		c-0.676,1.726-1.515,3.397-2.516,5.014c-1.002,1.618-2.161,3.15-3.476,4.598c-1.316,1.448-2.746,2.788-4.29,4.019
		C176.762,50.62,180.72,55.447,185.162,59.599z M160.614,28.208c-0.966,0-2.112,0.054-3.439,0.163
		c-1.328,0.108-2.776,0.235-4.345,0.38c-0.072,2.317-0.139,4.629-0.199,6.934c-0.061,2.305-0.09,4.592-0.09,6.861
		c1.448-0.217,2.812-0.573,4.091-1.068c1.279-0.495,2.413-1.141,3.403-1.937c0.989-0.796,1.804-1.768,2.444-2.915
		c0.639-1.146,1.056-2.492,1.249-4.037c0.917-0.145,1.852-0.29,2.806-0.435c0.953-0.145,1.924-0.313,2.915-0.507
		c-0.049,0-0.073-0.012-0.073-0.036v-0.036h0.073c-0.483-0.531-0.984-1.007-1.503-1.43c-0.519-0.422-1.117-0.778-1.792-1.068
		c-0.676-0.29-1.46-0.507-2.354-0.652S161.845,28.208,160.614,28.208z"/>
	<path fill="#0E4949" d="M244.612,59.599c-3.524,0.266-6.946,0.875-10.265,1.829c-3.319,0.953-6.692,2.263-10.12,3.928
		c-0.531-5.189-1.798-9.98-3.801-14.374c-0.966,0.217-1.943,0.387-2.933,0.507c-0.99,0.121-2.016,0.181-3.077,0.181
		c-0.411,0-0.815,0-1.213,0c-0.398,0-0.803-0.023-1.213-0.072c0.072,3.742,0.217,7.471,0.434,11.188
		c-0.772-0.121-1.545-0.199-2.317-0.235c-0.773-0.036-1.509-0.054-2.208-0.054c-2.39,0-5.009,0.271-7.857,0.814
		c-2.848,0.543-5.914,1.358-9.196,2.444c1.231-3.331,2.287-6.638,3.168-9.921c0.881-3.282,1.575-6.601,2.082-9.957
		c-1.642-1.086-3.048-2.148-4.218-3.186c-1.171-1.038-2.058-1.906-2.661-2.607c1.183,0.338,2.408,0.652,3.675,0.941
		c1.267,0.29,2.54,0.543,3.819,0.76c0.29-2.751,0.435-5.54,0.435-8.363v-1.34c-1.303,0.411-2.595,0.845-3.874,1.303
		c-1.28,0.459-2.559,0.966-3.838,1.521c0.748-2.414,1.123-4.646,1.123-6.698c0-1.713-0.217-3.336-0.652-4.87
		c-0.435-1.533-1.062-2.975-1.883-4.327c5.189-0.724,9.781-1.213,13.776-1.466c3.995-0.253,7.561-0.38,10.699-0.38
		c1.448,0,3.114,0.031,4.996,0.091c1.883,0.061,3.813,0.211,5.793,0.453c1.979,0.241,3.952,0.591,5.92,1.05
		c1.967,0.459,3.771,1.086,5.413,1.883c1.641,0.796,3.047,1.798,4.218,3.005c1.17,1.208,1.96,2.656,2.372,4.345
		c0.555-0.265,1.098-0.531,1.629-0.796c0.531-0.266,1.074-0.567,1.629-0.905c-0.29,1.738-0.773,3.47-1.448,5.196
		c-0.676,1.726-1.515,3.397-2.516,5.014c-1.002,1.618-2.161,3.15-3.476,4.598c-1.316,1.448-2.746,2.788-4.29,4.019
		C236.212,50.62,240.17,55.447,244.612,59.599z M220.064,28.208c-0.966,0-2.112,0.054-3.439,0.163
		c-1.328,0.108-2.776,0.235-4.345,0.38c-0.072,2.317-0.139,4.629-0.199,6.934c-0.061,2.305-0.09,4.592-0.09,6.861
		c1.448-0.217,2.812-0.573,4.091-1.068c1.279-0.495,2.413-1.141,3.403-1.937c0.989-0.796,1.804-1.768,2.444-2.915
		c0.639-1.146,1.056-2.492,1.249-4.037c0.917-0.145,1.852-0.29,2.806-0.435c0.953-0.145,1.924-0.313,2.915-0.507
		c-0.049,0-0.073-0.012-0.073-0.036v-0.036h0.073c-0.483-0.531-0.984-1.007-1.503-1.43c-0.519-0.422-1.117-0.778-1.792-1.068
		c-0.676-0.29-1.46-0.507-2.354-0.652S221.295,28.208,220.064,28.208z"/>
	<path fill="#0E4949" d="M310.072,19.555c-4.948,3.838-9.613,7.881-13.994,12.129c-4.381,4.249-8.442,8.834-12.183,13.758h0.145
		c-0.217,1.376-0.266,2.8-0.145,4.272c0.12,1.473,0.362,2.951,0.724,4.435c0.362,1.485,0.814,2.945,1.357,4.381
		c0.543,1.436,1.128,2.806,1.756,4.109c-2.849-0.773-5.57-1.364-8.165-1.774c-2.595-0.41-5.087-0.615-7.477-0.615
		c-1.593,0-3.265,0.09-5.015,0.271c-1.75,0.181-3.615,0.44-5.594,0.778c1.424-2.727,2.607-5.485,3.548-8.273
		c0.941-2.788,1.544-5.69,1.81-8.708h0.072c-2.606-4.513-5.679-8.744-9.214-12.69c-3.536-3.946-7.585-7.597-12.147-10.952h0.435
		c1.81,0.266,3.578,0.465,5.304,0.597c1.725,0.133,3.445,0.199,5.159,0.199c3.766,0,7.604-0.519,11.514-1.557
		c2.003,5.672,4.839,10.343,8.508,14.012c1.955-1.858,3.663-3.995,5.123-6.409c1.46-2.413,2.649-5.044,3.566-7.893
		c1.955,0.434,3.856,0.754,5.703,0.959c1.846,0.206,3.626,0.308,5.34,0.308c2.1,0,4.26-0.114,6.481-0.344
		C304.907,20.321,307.369,19.989,310.072,19.555z"/>
	<path fill="#0E4949" d="M398.017,21.619c-2.994,3.403-5.262,7.078-6.807,11.024c-1.545,3.947-2.317,8.213-2.317,12.799
		c0,2.414,0.205,4.852,0.615,7.314c0.41,2.462,1.05,4.96,1.919,7.495c-1.834,0.048-3.742,0.217-5.72,0.507
		c-1.69,0.266-3.561,0.658-5.612,1.177c-2.052,0.519-4.067,1.249-6.046,2.19c-1.521-3.958-3.391-7.736-5.612-11.333
		c-2.221-3.596-4.743-7.012-7.567-10.247c0.29,6.831-0.531,13.892-2.462,21.181c-4.394-1.376-8.424-2.063-12.093-2.063
		c-1.183,0-2.474,0.072-3.874,0.217c-1.4,0.145-2.896,0.35-4.489,0.616c3.017-3.403,5.316-7.084,6.897-11.043
		c1.581-3.958,2.372-8.291,2.372-12.998c0-1.521-0.097-3.095-0.29-4.725c-0.193-1.629-0.495-3.336-0.905-5.123
		c-1.497-1.134-3-2.227-4.507-3.277c-1.509-1.05-3.048-2.082-4.617-3.096c2.221,0.194,4.266,0.253,6.137,0.181
		c1.87-0.072,3.693-0.283,5.467-0.634c1.774-0.35,3.572-0.844,5.395-1.484c1.822-0.639,3.82-1.454,5.992-2.444l15.351,25.055
		c-0.145-1.159-0.241-2.317-0.29-3.476c-0.049-1.159-0.072-2.305-0.072-3.44c0-3.524,0.41-6.981,1.231-10.373
		c0.82-3.391,2.16-6.752,4.019-10.083c2.799,1.834,5.66,3.252,8.581,4.254C391.632,20.792,394.733,21.401,398.017,21.619z"/>
	<path fill="#0E4949" d="M444.759,19.482c-0.845,0.676-1.642,1.382-2.39,2.118s-1.46,1.515-2.136,2.335
		c2.269,0.435,4.417,1.129,6.444,2.082c2.027,0.954,3.789,2.154,5.286,3.603c1.496,1.448,2.685,3.132,3.566,5.051
		c0.881,1.919,1.321,4.049,1.321,6.39c0,2.656-0.44,5.051-1.321,7.187c-0.882,2.136-2.1,4.043-3.657,5.721
		c-1.557,1.678-3.397,3.126-5.521,4.345s-4.429,2.221-6.915,3.005s-5.104,1.37-7.856,1.756s-5.527,0.58-8.327,0.58
		c-0.99,0-2.016-0.018-3.078-0.054c-1.062-0.037-2.094-0.091-3.096-0.163s-1.931-0.175-2.787-0.308
		c-0.857-0.133-1.575-0.296-2.154-0.489c0.675-0.556,1.321-1.117,1.937-1.684s1.177-1.141,1.684-1.72
		c-2.293-0.435-4.447-1.086-6.463-1.956c-2.016-0.869-3.783-1.985-5.304-3.349s-2.722-2.969-3.603-4.815
		c-0.882-1.847-1.321-3.965-1.321-6.354c0-2.8,0.512-5.328,1.538-7.585c1.026-2.257,2.432-4.266,4.218-6.028
		c1.786-1.762,3.887-3.271,6.301-4.526c2.413-1.255,5.008-2.293,7.784-3.114c2.775-0.82,5.666-1.424,8.671-1.81
		c3.005-0.386,5.992-0.58,8.961-0.58c1.231,0,2.492,0.031,3.784,0.091c1.29,0.061,2.648,0.151,4.072,0.271H444.759z M441.139,38.527
		c0-2.051-0.441-3.729-1.322-5.033s-2.045-2.341-3.493-3.114c-0.267,0.628-0.52,1.273-0.761,1.937
		c-0.241,0.664-0.459,1.346-0.651,2.046c-1.69-0.483-3.108-0.809-4.255-0.978c-1.146-0.168-2.105-0.253-2.878-0.253
		c-1.521,0-3.054,0.253-4.598,0.761c-1.546,0.507-2.934,1.237-4.164,2.19c-1.231,0.954-2.239,2.112-3.023,3.476
		c-0.784,1.364-1.177,2.903-1.177,4.616c0,1.642,0.417,3.145,1.249,4.508c0.833,1.364,1.925,2.625,3.277,3.784
		c0.217-0.748,0.38-1.508,0.488-2.281c0.108-0.772,0.187-1.569,0.235-2.39c1.786,0.821,3.367,1.388,4.743,1.702
		c1.376,0.314,2.582,0.471,3.62,0.471c1.594,0,3.15-0.259,4.671-0.778c1.521-0.519,2.879-1.273,4.073-2.263s2.154-2.19,2.878-3.603
		C440.776,41.912,441.139,40.313,441.139,38.527z"/>
	<path fill="#0E4949" d="M495.375,61.373c-0.579,0-1.056-0.005-1.43-0.018c-0.375-0.012-0.677-0.018-0.905-0.018
		c-0.229,0-0.404-0.005-0.525-0.018c-0.121-0.012-0.229-0.018-0.326-0.018c-2.703,0-5.431,0.193-8.182,0.579
		c-2.752,0.386-5.553,1.026-8.4,1.919c-0.049-0.555-0.072-1.171-0.072-1.846c0-0.676,0-1.291,0-1.847
		c0-5.455,0.422-10.699,1.268-15.731c0.844-5.033,2.269-9.95,4.271-14.754c-3.451,0.386-6.939,0.996-10.463,1.828
		c-3.524,0.833-7,1.937-10.428,3.313c0.435-1.738,0.767-3.379,0.996-4.924c0.229-1.544,0.344-3.042,0.344-4.49
		c0-1.352-0.091-2.721-0.271-4.109c-0.181-1.388-0.44-2.793-0.778-4.218c4.199,0.821,8.43,1.509,12.69,2.063
		c4.26,0.556,8.526,0.905,12.799,1.05c0.675-1.038,1.369-2.088,2.081-3.15s1.479-2.112,2.3-3.15
		c-0.121,1.086-0.212,2.148-0.271,3.186c-0.061,1.038-0.115,2.1-0.163,3.186h0.217c2.728,0,5.473-0.096,8.237-0.29
		c2.764-0.193,5.726-0.519,8.889-0.978c-0.483,0.845-0.888,1.738-1.213,2.679c-0.326,0.941-0.489,2.1-0.489,3.476
		c0,0.773,0.078,1.636,0.235,2.589c0.157,0.954,0.429,2.045,0.814,3.276c-2.655-0.603-5.395-1.062-8.219-1.375
		c-2.824-0.313-5.672-0.471-8.544-0.471c0.145,5.479,0.657,10.892,1.538,16.238C492.255,50.698,493.589,56.039,495.375,61.373z"/>
	<path fill="#0E4949" d="M596.534,36.752c0.072,0.531,0.114,1.05,0.127,1.557c0.012,0.507,0.018,1.002,0.018,1.484
		c0,2.535-0.393,4.912-1.177,7.133s-1.864,4.26-3.24,6.119c-1.376,1.859-2.999,3.524-4.869,4.997
		c-1.871,1.472-3.905,2.715-6.102,3.729s-4.495,1.792-6.896,2.335c-2.402,0.543-4.81,0.814-7.224,0.814
		c-2.269,0-4.453-0.097-6.553-0.29c-2.101-0.193-4.092-0.29-5.975-0.29c-1.448,0-2.812,0.102-4.091,0.308
		c-1.28,0.205-2.462,0.621-3.549,1.249c-0.893-3.307-1.841-6.306-2.842-8.997c-1.002-2.691-1.925-4.99-2.77-6.897
		c-0.99-2.22-1.979-4.211-2.969-5.974c2.872,1.497,5.75,2.679,8.635,3.548c2.884,0.869,5.63,1.539,8.237,2.01
		c2.606,0.471,4.983,0.772,7.132,0.905c2.148,0.133,3.935,0.199,5.359,0.199c1.593,0,3.197-0.096,4.815-0.29
		c1.616-0.193,3.246-0.495,4.888-0.905c-0.411-0.555-0.833-1.05-1.268-1.484s-0.833-0.784-1.194-1.05
		c-0.435-0.313-0.857-0.58-1.268-0.797c-0.7-0.337-1.647-0.669-2.842-0.996c-1.195-0.326-2.523-0.682-3.983-1.068
		c-1.46-0.386-3.018-0.809-4.67-1.267c-1.654-0.458-3.295-0.99-4.925-1.593c-1.629-0.603-3.186-1.291-4.67-2.064
		c-1.484-0.772-2.807-1.653-3.965-2.643c-0.918-0.797-1.678-1.66-2.281-2.589s-1.08-1.883-1.43-2.86
		c-0.351-0.978-0.604-1.955-0.761-2.933s-0.247-1.913-0.271-2.806c-0.845,0.338-1.605,0.664-2.281,0.978
		c-0.676,0.314-1.255,0.58-1.737,0.797l-1.448,0.724c0.869-2.607,2.082-4.912,3.639-6.916c1.557-2.003,3.307-3.741,5.25-5.214
		c1.942-1.472,4.019-2.715,6.228-3.729c2.208-1.014,4.398-1.847,6.571-2.498c5.068-1.521,10.56-2.39,16.474-2.607
		c1.834,0,3.789-0.073,5.865-0.217c1.786-0.121,3.825-0.308,6.119-0.561c2.293-0.254,4.706-0.622,7.241-1.104
		c-0.773,1.159-1.395,2.414-1.865,3.766c-0.471,1.352-0.839,2.715-1.104,4.091c-0.267,1.376-0.447,2.734-0.544,4.073
		c-0.097,1.34-0.145,2.565-0.145,3.675c0,0.748,0.012,1.424,0.036,2.027c0.024,0.604,0.061,1.123,0.108,1.557
		c0.049,0.507,0.109,0.966,0.182,1.376c-4.225-1.906-8.34-3.24-12.347-4c-4.007-0.761-7.881-1.141-11.622-1.141
		c-1.279,0-2.498,0.042-3.656,0.126c-1.159,0.085-2.317,0.199-3.477,0.344c0.266,1.159,0.742,2.124,1.431,2.896
		c0.688,0.772,1.382,1.4,2.082,1.883c0.82,0.555,1.701,0.99,2.643,1.303c1.834,0.579,3.825,1.285,5.975,2.118
		c2.147,0.833,4.296,1.864,6.444,3.096c2.147,1.231,4.212,2.679,6.191,4.345c1.979,1.665,3.717,3.597,5.213,5.793
		c0.918-0.772,1.811-1.623,2.68-2.553C594.978,38.847,595.786,37.839,596.534,36.752z"/>
	<path fill="#0E4949" d="M645.847,19.482c-0.845,0.676-1.642,1.382-2.39,2.118s-1.46,1.515-2.136,2.335
		c2.269,0.435,4.417,1.129,6.444,2.082c2.027,0.954,3.789,2.154,5.286,3.603c1.496,1.448,2.685,3.132,3.566,5.051
		c0.881,1.919,1.321,4.049,1.321,6.39c0,2.656-0.44,5.051-1.321,7.187c-0.882,2.136-2.1,4.043-3.657,5.721
		c-1.557,1.678-3.397,3.126-5.521,4.345s-4.429,2.221-6.915,3.005s-5.104,1.37-7.856,1.756s-5.527,0.58-8.327,0.58
		c-0.99,0-2.016-0.018-3.078-0.054c-1.062-0.037-2.094-0.091-3.096-0.163s-1.931-0.175-2.787-0.308
		c-0.857-0.133-1.575-0.296-2.154-0.489c0.675-0.556,1.321-1.117,1.937-1.684s1.177-1.141,1.684-1.72
		c-2.293-0.435-4.447-1.086-6.463-1.956c-2.016-0.869-3.783-1.985-5.304-3.349s-2.722-2.969-3.603-4.815
		c-0.882-1.847-1.321-3.965-1.321-6.354c0-2.8,0.512-5.328,1.538-7.585c1.026-2.257,2.432-4.266,4.218-6.028
		c1.786-1.762,3.887-3.271,6.301-4.526c2.413-1.255,5.008-2.293,7.784-3.114c2.775-0.82,5.666-1.424,8.671-1.81
		c3.005-0.386,5.992-0.58,8.961-0.58c1.231,0,2.492,0.031,3.784,0.091c1.29,0.061,2.648,0.151,4.072,0.271H645.847z M642.227,38.527
		c0-2.051-0.441-3.729-1.322-5.033s-2.045-2.341-3.493-3.114c-0.267,0.628-0.52,1.273-0.761,1.937
		c-0.241,0.664-0.459,1.346-0.651,2.046c-1.69-0.483-3.108-0.809-4.255-0.978c-1.146-0.168-2.105-0.253-2.878-0.253
		c-1.521,0-3.054,0.253-4.598,0.761c-1.546,0.507-2.934,1.237-4.164,2.19c-1.231,0.954-2.239,2.112-3.023,3.476
		c-0.784,1.364-1.177,2.903-1.177,4.616c0,1.642,0.417,3.145,1.249,4.508c0.833,1.364,1.925,2.625,3.277,3.784
		c0.217-0.748,0.38-1.508,0.488-2.281c0.108-0.772,0.187-1.569,0.235-2.39c1.786,0.821,3.367,1.388,4.743,1.702
		c1.376,0.314,2.582,0.471,3.62,0.471c1.594,0,3.15-0.259,4.671-0.778c1.521-0.519,2.879-1.273,4.073-2.263s2.154-2.19,2.878-3.603
		C641.864,41.912,642.227,40.313,642.227,38.527z"/>
	<path fill="#0E4949" d="M718.585,59.599c-3.524,0.266-6.946,0.875-10.265,1.829c-3.319,0.953-6.692,2.263-10.119,3.928
		c-0.531-5.189-1.799-9.98-3.802-14.374c-0.966,0.217-1.943,0.387-2.933,0.507c-0.99,0.121-2.016,0.181-3.078,0.181
		c-0.41,0-0.814,0-1.213,0s-0.803-0.023-1.213-0.072c0.072,3.742,0.218,7.471,0.435,11.188c-0.772-0.121-1.545-0.199-2.317-0.235
		s-1.509-0.054-2.208-0.054c-2.39,0-5.009,0.271-7.856,0.814c-2.849,0.543-5.914,1.358-9.196,2.444
		c1.23-3.331,2.286-6.638,3.168-9.921c0.881-3.282,1.574-6.601,2.081-9.957c-1.642-1.086-3.047-2.148-4.218-3.186
		c-1.171-1.038-2.058-1.906-2.661-2.607c1.183,0.338,2.408,0.652,3.675,0.941c1.268,0.29,2.54,0.543,3.82,0.76
		c0.289-2.751,0.435-5.54,0.435-8.363v-1.34c-1.304,0.411-2.596,0.845-3.874,1.303c-1.28,0.459-2.56,0.966-3.838,1.521
		c0.747-2.414,1.122-4.646,1.122-6.698c0-1.713-0.218-3.336-0.651-4.87c-0.435-1.533-1.062-2.975-1.883-4.327
		c5.189-0.724,9.781-1.213,13.776-1.466c3.994-0.253,7.561-0.38,10.698-0.38c1.448,0,3.114,0.031,4.997,0.091
		c1.883,0.061,3.813,0.211,5.793,0.453c1.979,0.241,3.952,0.591,5.919,1.05c1.968,0.459,3.771,1.086,5.413,1.883
		c1.642,0.796,3.047,1.798,4.218,3.005c1.171,1.208,1.961,2.656,2.372,4.345c0.555-0.265,1.098-0.531,1.629-0.796
		s1.074-0.567,1.63-0.905c-0.29,1.738-0.773,3.47-1.448,5.196c-0.677,1.726-1.516,3.397-2.517,5.014
		c-1.002,1.618-2.16,3.15-3.476,4.598c-1.316,1.448-2.746,2.788-4.291,4.019C710.185,50.62,714.144,55.447,718.585,59.599z
		 M694.037,28.208c-0.966,0-2.112,0.054-3.439,0.163c-1.328,0.108-2.776,0.235-4.345,0.38c-0.072,2.317-0.14,4.629-0.199,6.934
		c-0.061,2.305-0.091,4.592-0.091,6.861c1.448-0.217,2.812-0.573,4.092-1.068c1.279-0.495,2.413-1.141,3.403-1.937
		c0.989-0.796,1.804-1.768,2.443-2.915c0.64-1.146,1.056-2.492,1.249-4.037c0.918-0.145,1.853-0.29,2.807-0.435
		c0.953-0.145,1.925-0.313,2.914-0.507c-0.049,0-0.072-0.012-0.072-0.036v-0.036h0.072c-0.482-0.531-0.983-1.007-1.502-1.43
		c-0.52-0.422-1.117-0.778-1.793-1.068c-0.676-0.29-1.46-0.507-2.353-0.652C696.33,28.28,695.269,28.208,694.037,28.208z"/>
	<path fill="#0E4949" d="M778.035,59.599c-3.524,0.266-6.946,0.875-10.265,1.829c-3.319,0.953-6.692,2.263-10.119,3.928
		c-0.531-5.189-1.799-9.98-3.802-14.374c-0.966,0.217-1.943,0.387-2.933,0.507c-0.99,0.121-2.016,0.181-3.078,0.181
		c-0.41,0-0.814,0-1.213,0s-0.803-0.023-1.213-0.072c0.072,3.742,0.218,7.471,0.435,11.188c-0.772-0.121-1.545-0.199-2.317-0.235
		s-1.509-0.054-2.208-0.054c-2.39,0-5.009,0.271-7.856,0.814c-2.849,0.543-5.914,1.358-9.196,2.444
		c1.23-3.331,2.286-6.638,3.168-9.921c0.881-3.282,1.574-6.601,2.081-9.957c-1.642-1.086-3.047-2.148-4.218-3.186
		c-1.171-1.038-2.058-1.906-2.661-2.607c1.183,0.338,2.408,0.652,3.675,0.941c1.268,0.29,2.54,0.543,3.82,0.76
		c0.289-2.751,0.435-5.54,0.435-8.363v-1.34c-1.304,0.411-2.596,0.845-3.874,1.303c-1.28,0.459-2.56,0.966-3.838,1.521
		c0.747-2.414,1.122-4.646,1.122-6.698c0-1.713-0.218-3.336-0.651-4.87c-0.435-1.533-1.062-2.975-1.883-4.327
		c5.189-0.724,9.781-1.213,13.776-1.466c3.994-0.253,7.561-0.38,10.698-0.38c1.448,0,3.114,0.031,4.997,0.091
		c1.883,0.061,3.813,0.211,5.793,0.453c1.979,0.241,3.952,0.591,5.919,1.05c1.968,0.459,3.771,1.086,5.413,1.883
		c1.642,0.796,3.047,1.798,4.218,3.005c1.171,1.208,1.961,2.656,2.372,4.345c0.555-0.265,1.098-0.531,1.629-0.796
		s1.074-0.567,1.63-0.905c-0.29,1.738-0.773,3.47-1.448,5.196c-0.677,1.726-1.516,3.397-2.517,5.014
		c-1.002,1.618-2.16,3.15-3.476,4.598c-1.316,1.448-2.746,2.788-4.291,4.019C769.635,50.62,773.594,55.447,778.035,59.599z
		 M753.487,28.208c-0.966,0-2.112,0.054-3.439,0.163c-1.328,0.108-2.776,0.235-4.345,0.38c-0.072,2.317-0.14,4.629-0.199,6.934
		c-0.061,2.305-0.091,4.592-0.091,6.861c1.448-0.217,2.812-0.573,4.092-1.068c1.279-0.495,2.413-1.141,3.403-1.937
		c0.989-0.796,1.804-1.768,2.443-2.915c0.64-1.146,1.056-2.492,1.249-4.037c0.918-0.145,1.853-0.29,2.807-0.435
		c0.953-0.145,1.925-0.313,2.914-0.507c-0.049,0-0.072-0.012-0.072-0.036v-0.036h0.072c-0.482-0.531-0.983-1.007-1.502-1.43
		c-0.52-0.422-1.117-0.778-1.793-1.068c-0.676-0.29-1.46-0.507-2.353-0.652C755.78,28.28,754.719,28.208,753.487,28.208z"/>
	<path fill="#0E4949" d="M843.495,19.555c-4.948,3.838-9.612,7.881-13.993,12.129c-4.381,4.249-8.442,8.834-12.184,13.758h0.145
		c-0.217,1.376-0.266,2.8-0.145,4.272c0.12,1.473,0.362,2.951,0.724,4.435c0.362,1.485,0.815,2.945,1.358,4.381
		s1.128,2.806,1.756,4.109c-2.849-0.773-5.57-1.364-8.165-1.774c-2.595-0.41-5.087-0.615-7.477-0.615
		c-1.593,0-3.265,0.09-5.014,0.271c-1.751,0.181-3.615,0.44-5.595,0.778c1.425-2.727,2.607-5.485,3.549-8.273
		c0.941-2.788,1.544-5.69,1.811-8.708h0.072c-2.607-4.513-5.679-8.744-9.215-12.69c-3.536-3.946-7.585-7.597-12.147-10.952h0.435
		c1.811,0.266,3.578,0.465,5.305,0.597c1.726,0.133,3.445,0.199,5.159,0.199c3.766,0,7.604-0.519,11.514-1.557
		c2.003,5.672,4.839,10.343,8.508,14.012c1.956-1.858,3.663-3.995,5.124-6.409c1.46-2.413,2.648-5.044,3.565-7.893
		c1.956,0.434,3.856,0.754,5.703,0.959c1.847,0.206,3.626,0.308,5.34,0.308c2.101,0,4.26-0.114,6.481-0.344
		C838.329,20.321,840.792,19.989,843.495,19.555z"/>
	<path fill="#0E4949" d="M173.653,174.988h-16.572c-1.41,0-2.43-0.314-3.059-0.945c-0.631-0.629-0.946-1.649-0.946-3.059V98.91
		c0-1.408,0.315-2.428,0.946-3.059c0.629-0.629,1.649-0.945,3.059-0.945h17.907c1.185,0,2.169,0.261,2.947,0.779
		c0.779,0.52,1.501,1.373,2.169,2.558l10.01,18.13c0.37,0.667,0.685,1.15,0.945,1.445c0.259,0.298,0.612,0.445,1.057,0.445h1.001
		c0.445,0,0.796-0.147,1.057-0.445c0.259-0.295,0.574-0.778,0.946-1.445l9.899-18.13c0.667-1.186,1.39-2.039,2.169-2.558
		c0.778-0.518,1.76-0.779,2.947-0.779h18.019c1.408,0,2.428,0.316,3.059,0.945c0.629,0.631,0.945,1.651,0.945,3.059v72.074
		c0,1.409-0.316,2.43-0.945,3.059c-0.631,0.631-1.651,0.945-3.059,0.945h-17.129c-1.409,0-2.429-0.314-3.059-0.945
		c-0.631-0.629-0.945-1.649-0.945-3.059v-39.151l-6.562,12.123c-0.667,1.262-1.465,2.169-2.391,2.726
		c-0.928,0.556-2.096,0.834-3.503,0.834h-4.449c-1.409,0-2.577-0.278-3.503-0.834c-0.928-0.557-1.724-1.464-2.392-2.726
		l-6.562-12.123v39.151c0,1.409-0.316,2.43-0.946,3.059C176.082,174.673,175.061,174.988,173.653,174.988z M192.228,132.167
		c-1.334,0-2.299-0.296-2.892-0.89c-0.595-0.593-1.521-1.854-2.781-3.782l-13.569-20.688c-0.445-0.74-0.965-1.241-1.557-1.502
		c-0.595-0.259-1.187-0.389-1.78-0.389h-1.891c-0.965,0-1.688,0.277-2.169,0.834c-0.483,0.556-0.723,1.429-0.723,2.613v56.614h1.112
		v-56.614c0-0.593,0.111-1.129,0.333-1.612c0.223-0.481,0.704-0.723,1.446-0.723h1.668c0.518,0,0.982,0.074,1.391,0.222
		c0.407,0.149,0.834,0.595,1.279,1.335l13.569,20.466c1.335,2.002,2.354,3.375,3.059,4.115c0.704,0.742,1.872,1.112,3.503,1.112
		c1.63,0,2.798-0.37,3.503-1.112c0.704-0.74,1.724-2.113,3.059-4.115l13.569-20.466c0.445-0.74,0.852-1.186,1.223-1.335
		c0.371-0.147,0.815-0.222,1.335-0.222h1.668c0.74,0,1.241,0.241,1.501,0.723c0.259,0.483,0.389,1.02,0.389,1.612v56.614h1.112
		v-56.614c0-1.185-0.242-2.058-0.723-2.613c-0.483-0.557-1.242-0.834-2.28-0.834h-1.891c-0.594,0-1.167,0.13-1.724,0.389
		c-0.556,0.261-1.057,0.762-1.502,1.502L197.9,127.495c-1.262,1.929-2.188,3.189-2.78,3.782
		C194.525,131.871,193.562,132.167,192.228,132.167z"/>
	<path fill="#0E4949" d="M270.196,170.984c0,1.409-0.316,2.43-0.945,3.059c-0.631,0.631-1.651,0.945-3.059,0.945h-16.35
		c-1.41,0-2.43-0.314-3.059-0.945c-0.631-0.629-0.945-1.649-0.945-3.059v-29.363c0-2.225,0.351-4.783,1.057-7.675
		c0.704-2.892,1.797-6.265,3.281-10.121l9.677-25.249c0.445-1.26,1.129-2.186,2.058-2.781c0.926-0.592,2.131-0.89,3.615-0.89h29.919
		c1.408,0,2.576,0.297,3.504,0.89c0.926,0.595,1.613,1.521,2.058,2.781l9.676,25.249c1.482,3.856,2.576,7.229,3.281,10.121
		c0.704,2.892,1.057,5.45,1.057,7.675v29.363c0,1.409-0.316,2.43-0.945,3.059c-0.631,0.631-1.651,0.945-3.059,0.945h-16.795
		c-1.484,0-2.578-0.314-3.281-0.945c-0.706-0.629-1.057-1.649-1.057-3.059v-15.571h-19.687V170.984z M302.118,164.978h1.112v-23.691
		c0-2.075-0.167-3.985-0.501-5.729c-0.333-1.741-0.797-3.429-1.39-5.061l-7.674-18.129c-0.89-2.15-1.835-3.93-2.836-5.339
		c-1.001-1.408-2.725-2.113-5.172-2.113h-10.9c-2.522,0-4.301,0.705-5.339,2.113c-1.04,1.409-1.966,3.152-2.781,5.228l-7.118,18.24
		c-0.595,1.632-1.057,3.319-1.391,5.061c-0.333,1.743-0.5,3.653-0.5,5.729v23.691h1.112v-19.131h43.378V164.978z M258.74,141.287
		c0-2.002,0.167-3.854,0.5-5.562c0.333-1.704,0.759-3.298,1.279-4.782l7.118-18.241c0.74-1.853,1.557-3.429,2.447-4.727
		c0.89-1.297,2.447-1.946,4.671-1.946h10.9c2.075,0,3.559,0.649,4.449,1.946c0.89,1.298,1.742,2.911,2.559,4.838l7.674,18.13
		c0.518,1.484,0.945,3.078,1.279,4.782c0.333,1.707,0.5,3.56,0.5,5.562v3.448H258.74V141.287z M276.536,118.263l-5.228,16.906
		h17.462l-5.228-16.906c-0.297-0.667-0.612-1.148-0.945-1.446c-0.334-0.295-0.723-0.444-1.168-0.444h-2.781
		c-0.445,0-0.834,0.149-1.168,0.444C277.148,117.115,276.832,117.596,276.536,118.263z"/>
	<path fill="#0E4949" d="M381.977,174.988h-27.139c-9.27,0-16.147-1.853-20.632-5.562c-4.487-3.707-6.729-9.416-6.729-17.128
		v-34.592c0-7.711,2.242-13.438,6.729-17.184c4.485-3.744,11.362-5.617,20.632-5.617h27.139c1.408,0,2.428,0.316,3.059,0.945
		c0.629,0.631,0.946,1.651,0.946,3.059v13.458c0,1.409-0.316,2.429-0.946,3.059c-0.631,0.631-1.651,0.945-3.059,0.945h-22.356
		c-2.299,0-4.004,0.464-5.117,1.39c-1.112,0.929-1.668,2.318-1.668,4.171v26.472c0,1.854,0.556,3.208,1.668,4.06
		c1.112,0.854,2.817,1.279,5.117,1.279h22.356c1.408,0,2.428,0.316,3.059,0.945c0.629,0.631,0.946,1.651,0.946,3.059v13.236
		c0,1.409-0.316,2.43-0.946,3.059C384.405,174.673,383.385,174.988,381.977,174.988z M375.86,163.866h-18.575
		c-6.673,0-11.123-1.001-13.347-3.004c-2.224-2.002-3.336-5.411-3.336-10.232v-31.143c0-4.895,1.148-8.359,3.448-10.399
		c2.298-2.039,6.71-3.059,13.236-3.059h18.575v-1.112h-18.575c-7.118,0-11.865,1.112-14.237,3.336
		c-2.374,2.225-3.559,5.97-3.559,11.234v31.143c0,5.116,1.168,8.787,3.503,11.012c2.336,2.225,7.1,3.337,14.292,3.337h18.575
		V163.866z"/>
	<path fill="#0E4949" d="M419.793,174.988h-17.24c-1.409,0-2.43-0.314-3.059-0.945c-0.631-0.629-0.945-1.649-0.945-3.059V98.91
		c0-1.408,0.314-2.428,0.945-3.059c0.629-0.629,1.649-0.945,3.059-0.945h17.24c1.407,0,2.428,0.316,3.059,0.945
		c0.629,0.631,0.945,1.651,0.945,3.059v24.135h18.574V98.91c0-1.408,0.314-2.428,0.945-3.059c0.629-0.629,1.649-0.945,3.059-0.945
		h17.24c1.407,0,2.428,0.316,3.059,0.945c0.629,0.631,0.945,1.651,0.945,3.059v72.074c0,1.409-0.316,2.43-0.945,3.059
		c-0.631,0.631-1.651,0.945-3.059,0.945h-17.24c-1.409,0-2.43-0.314-3.059-0.945c-0.631-0.629-0.945-1.649-0.945-3.059v-24.692
		h-18.574v24.692c0,1.409-0.316,2.43-0.945,3.059C422.221,174.673,421.2,174.988,419.793,174.988z M410.561,164.978h1.112v-29.475
		h42.711v29.475h1.112v-60.062h-1.112v29.475h-42.711v-29.475h-1.112V164.978z"/>
	<path fill="#0E4949" d="M485.191,174.988c-1.41,0-2.43-0.314-3.06-0.945c-0.63-0.629-0.945-1.649-0.945-3.059v-13.236
		c0-1.407,0.315-2.428,0.945-3.059c0.63-0.629,1.649-0.945,3.06-0.945h11.011v-37.371h-11.011c-1.41,0-2.43-0.314-3.06-0.945
		c-0.63-0.63-0.945-1.649-0.945-3.059V98.91c0-1.408,0.315-2.428,0.945-3.059c0.63-0.629,1.649-0.945,3.06-0.945h47.382
		c1.407,0,2.428,0.316,3.059,0.945c0.629,0.631,0.945,1.651,0.945,3.059v13.458c0,1.409-0.316,2.429-0.945,3.059
		c-0.631,0.631-1.651,0.945-3.059,0.945h-10.789v37.371h10.789c1.407,0,2.428,0.316,3.059,0.945
		c0.629,0.631,0.945,1.651,0.945,3.059v13.236c0,1.409-0.316,2.43-0.945,3.059c-0.631,0.631-1.651,0.945-3.059,0.945H485.191z
		 M526.566,164.978v-1.112h-17.018v-57.837h17.018v-1.112h-35.369v1.112h17.24v57.837h-17.24v1.112H526.566z"/>
	<path fill="#0E4949" d="M570.945,174.988h-16.684c-1.409,0-2.43-0.314-3.059-0.945c-0.631-0.629-0.945-1.649-0.945-3.059V98.91
		c0-1.408,0.314-2.428,0.945-3.059c0.629-0.629,1.649-0.945,3.059-0.945h11.567c1.407,0,2.613,0.223,3.614,0.667
		c1.002,0.445,1.983,1.224,2.948,2.335l21.577,24.692V98.91c0-1.408,0.314-2.428,0.945-3.059c0.629-0.629,1.649-0.945,3.059-0.945
		h16.685c1.407,0,2.428,0.316,3.059,0.945c0.629,0.631,0.945,1.651,0.945,3.059v72.074c0,1.409-0.316,2.43-0.945,3.059
		c-0.631,0.631-1.651,0.945-3.059,0.945h-16.685c-1.409,0-2.43-0.314-3.059-0.945c-0.631-0.629-0.945-1.649-0.945-3.059v-13.681
		l-19.02-23.023v36.704c0,1.409-0.316,2.43-0.945,3.059C573.373,174.673,572.354,174.988,570.945,174.988z M564.939,105.806
		c-0.372-0.37-0.668-0.629-0.89-0.779c-0.223-0.147-0.483-0.222-0.779-0.222c-0.297,0-0.594,0.111-0.89,0.333
		c-0.297,0.223-0.444,0.557-0.444,1.001v58.839h1.112v-58.616c0-0.073,0.017-0.147,0.056-0.223c0.036-0.072,0.092-0.11,0.166-0.11
		c0.073,0,0.167,0.038,0.278,0.11c0.111,0.075,0.203,0.149,0.278,0.223l42.043,47.159v11.457h1.112v-60.062h-1.112v46.937
		L564.939,105.806z"/>
	<path fill="#0E4949" d="M689.621,174.988h-51.608c-1.409,0-2.43-0.314-3.059-0.945c-0.631-0.629-0.945-1.649-0.945-3.059V98.91
		c0-1.408,0.314-2.428,0.945-3.059c0.629-0.629,1.649-0.945,3.059-0.945h51.608c1.407,0,2.428,0.316,3.059,0.945
		c0.629,0.631,0.945,1.651,0.945,3.059v13.013c0,1.409-0.316,2.43-0.945,3.059c-0.631,0.631-1.651,0.945-3.059,0.945h-30.698v8.564
		h21.688c1.408,0,2.429,0.316,3.06,0.945c0.629,0.631,0.945,1.651,0.945,3.059v11.901c0,1.409-0.316,2.43-0.945,3.059
		c-0.631,0.631-1.651,0.945-3.06,0.945h-21.688v9.565h30.698c1.407,0,2.428,0.316,3.059,0.945c0.629,0.631,0.945,1.651,0.945,3.059
		v13.014c0,1.409-0.316,2.43-0.945,3.059C692.049,174.673,691.028,174.988,689.621,174.988z M683.615,163.866h-36.371v-28.808
		h27.361v-1.112h-27.361v-27.917h36.371v-1.112h-37.483v60.062h37.483V163.866z"/>
</g>
<g>
	<path fill="#F0EADD" d="M58.111,31.752c0.072,0.531,0.114,1.05,0.127,1.557c0.012,0.507,0.018,1.002,0.018,1.484
		c0,2.535-0.393,4.912-1.177,7.133c-0.785,2.221-1.865,4.26-3.241,6.119c-1.375,1.859-2.999,3.524-4.87,4.997
		s-3.904,2.715-6.101,3.729c-2.197,1.014-4.496,1.792-6.897,2.335c-2.402,0.543-4.81,0.814-7.223,0.814
		c-2.27,0-4.454-0.097-6.554-0.29c-2.1-0.193-4.091-0.29-5.974-0.29c-1.448,0-2.812,0.102-4.091,0.308
		c-1.28,0.205-2.462,0.621-3.548,1.249c-0.893-3.307-1.841-6.306-2.842-8.997c-1.002-2.691-1.925-4.99-2.77-6.897
		C1.979,42.784,0.99,40.792,0,39.03c2.873,1.497,5.751,2.679,8.635,3.548c2.884,0.869,5.63,1.539,8.237,2.01
		c2.607,0.471,4.984,0.772,7.133,0.905c2.148,0.133,3.934,0.199,5.358,0.199c1.593,0,3.198-0.096,4.815-0.29
		c1.617-0.193,3.246-0.495,4.888-0.905c-0.411-0.555-0.833-1.05-1.267-1.484s-0.833-0.784-1.195-1.05
		c-0.435-0.313-0.857-0.58-1.267-0.797c-0.701-0.337-1.647-0.669-2.842-0.996c-1.195-0.326-2.522-0.682-3.982-1.068
		c-1.461-0.386-3.018-0.809-4.671-1.267s-3.294-0.99-4.924-1.593c-1.629-0.603-3.186-1.291-4.671-2.064
		c-1.484-0.772-2.806-1.653-3.964-2.643c-0.917-0.797-1.678-1.66-2.281-2.589c-0.604-0.929-1.081-1.883-1.43-2.86
		c-0.351-0.978-0.604-1.955-0.76-2.933c-0.158-0.978-0.248-1.913-0.272-2.806c-0.845,0.338-1.605,0.664-2.281,0.978
		c-0.676,0.314-1.255,0.58-1.738,0.797l-1.448,0.724c0.869-2.607,2.082-4.912,3.639-6.916c1.557-2.003,3.307-3.741,5.25-5.214
		c1.942-1.472,4.019-2.715,6.227-3.729s4.399-1.847,6.572-2.498c5.069-1.521,10.56-2.39,16.474-2.607
		c1.834,0,3.789-0.073,5.865-0.217c1.786-0.121,3.825-0.308,6.119-0.561C52.511,0.851,54.925,0.483,57.459,0
		c-0.772,1.159-1.394,2.414-1.864,3.766c-0.471,1.352-0.839,2.715-1.104,4.091c-0.266,1.376-0.447,2.734-0.543,4.073
		c-0.097,1.34-0.145,2.565-0.145,3.675c0,0.748,0.012,1.424,0.036,2.027c0.024,0.604,0.06,1.123,0.109,1.557
		c0.048,0.507,0.108,0.966,0.181,1.376c-4.225-1.906-8.34-3.24-12.347-4c-4.007-0.761-7.881-1.141-11.622-1.141
		c-1.279,0-2.498,0.042-3.657,0.126c-1.159,0.085-2.317,0.199-3.476,0.344c0.265,1.159,0.742,2.124,1.43,2.896
		s1.381,1.4,2.082,1.883c0.82,0.555,1.702,0.99,2.643,1.303c1.834,0.579,3.826,1.285,5.974,2.118
		c2.148,0.833,4.296,1.864,6.445,3.096c2.148,1.231,4.211,2.679,6.191,4.345c1.979,1.665,3.717,3.597,5.214,5.793
		c0.917-0.772,1.81-1.623,2.679-2.553C56.554,33.847,57.362,32.839,58.111,31.752z"/>
	<path fill="#F0EADD" d="M107.423,14.482c-0.845,0.676-1.642,1.382-2.39,2.118s-1.46,1.515-2.136,2.335
		c2.269,0.435,4.417,1.129,6.444,2.082c2.028,0.954,3.79,2.154,5.286,3.603s2.685,3.132,3.566,5.051
		c0.881,1.919,1.321,4.049,1.321,6.39c0,2.656-0.44,5.051-1.321,7.187c-0.881,2.136-2.1,4.043-3.657,5.721
		c-1.557,1.678-3.398,3.126-5.521,4.345c-2.125,1.219-4.43,2.221-6.916,3.005c-2.486,0.784-5.105,1.37-7.856,1.756
		c-2.752,0.386-5.528,0.58-8.328,0.58c-0.99,0-2.016-0.018-3.077-0.054c-1.062-0.037-2.095-0.091-3.096-0.163
		c-1.002-0.072-1.932-0.175-2.788-0.308c-0.857-0.133-1.575-0.296-2.154-0.489c0.676-0.556,1.322-1.117,1.937-1.684
		c0.616-0.567,1.177-1.141,1.684-1.72c-2.293-0.435-4.448-1.086-6.462-1.956c-2.016-0.869-3.784-1.985-5.304-3.349
		c-1.521-1.364-2.722-2.969-3.603-4.815c-0.881-1.847-1.322-3.965-1.322-6.354c0-2.8,0.513-5.328,1.539-7.585
		c1.025-2.257,2.431-4.266,4.218-6.028c1.786-1.762,3.886-3.271,6.3-4.526c2.414-1.255,5.008-2.293,7.784-3.114
		c2.775-0.82,5.667-1.424,8.671-1.81c3.005-0.386,5.992-0.58,8.961-0.58c1.231,0,2.492,0.031,3.784,0.091
		c1.291,0.061,2.649,0.151,4.073,0.271H107.423z M103.803,33.527c0-2.051-0.44-3.729-1.321-5.033
		c-0.881-1.303-2.046-2.341-3.494-3.114c-0.266,0.628-0.519,1.273-0.76,1.937c-0.241,0.664-0.458,1.346-0.651,2.046
		c-1.69-0.483-3.108-0.809-4.254-0.978c-1.146-0.168-2.106-0.253-2.878-0.253c-1.521,0-3.054,0.253-4.598,0.761
		c-1.545,0.507-2.933,1.237-4.164,2.19s-2.239,2.112-3.023,3.476c-0.785,1.364-1.177,2.903-1.177,4.616
		c0,1.642,0.417,3.145,1.25,4.508c0.833,1.364,1.924,2.625,3.276,3.784c0.217-0.748,0.38-1.508,0.489-2.281
		c0.109-0.772,0.187-1.569,0.235-2.39c1.786,0.821,3.367,1.388,4.743,1.702c1.375,0.314,2.583,0.471,3.621,0.471
		c1.593,0,3.15-0.259,4.67-0.778c1.521-0.519,2.878-1.273,4.073-2.263s2.154-2.19,2.878-3.603S103.803,35.313,103.803,33.527z"/>
	<path fill="#F0EADD" d="M180.162,54.599c-3.524,0.266-6.946,0.875-10.265,1.829c-3.319,0.953-6.692,2.263-10.12,3.928
		c-0.531-5.189-1.798-9.98-3.801-14.374c-0.966,0.217-1.943,0.387-2.933,0.507c-0.99,0.121-2.016,0.181-3.077,0.181
		c-0.411,0-0.815,0-1.213,0c-0.398,0-0.803-0.023-1.213-0.072c0.072,3.742,0.217,7.471,0.434,11.188
		c-0.772-0.121-1.545-0.199-2.317-0.235c-0.773-0.036-1.509-0.054-2.208-0.054c-2.39,0-5.009,0.271-7.857,0.814
		c-2.848,0.543-5.914,1.358-9.196,2.444c1.231-3.331,2.287-6.638,3.168-9.921c0.881-3.282,1.575-6.601,2.082-9.957
		c-1.642-1.086-3.048-2.148-4.218-3.186c-1.171-1.038-2.058-1.906-2.661-2.607c1.183,0.338,2.408,0.652,3.675,0.941
		c1.267,0.29,2.54,0.543,3.819,0.76c0.29-2.751,0.435-5.54,0.435-8.363v-1.34c-1.303,0.411-2.595,0.845-3.874,1.303
		c-1.28,0.459-2.559,0.966-3.838,1.521c0.748-2.414,1.123-4.646,1.123-6.698c0-1.713-0.217-3.336-0.652-4.87
		c-0.435-1.533-1.062-2.975-1.883-4.327c5.189-0.724,9.781-1.213,13.776-1.466c3.995-0.253,7.561-0.38,10.699-0.38
		c1.448,0,3.114,0.031,4.996,0.091c1.883,0.061,3.813,0.211,5.793,0.453c1.979,0.241,3.952,0.591,5.92,1.05
		c1.967,0.459,3.771,1.086,5.413,1.883c1.641,0.796,3.047,1.798,4.218,3.005c1.17,1.208,1.96,2.656,2.372,4.345
		c0.555-0.265,1.098-0.531,1.629-0.796c0.531-0.266,1.074-0.567,1.629-0.905c-0.29,1.738-0.773,3.47-1.448,5.196
		c-0.676,1.726-1.515,3.397-2.516,5.014c-1.002,1.618-2.161,3.15-3.476,4.598c-1.316,1.448-2.746,2.788-4.29,4.019
		C171.762,45.62,175.72,50.447,180.162,54.599z M155.614,23.208c-0.966,0-2.112,0.054-3.439,0.163
		c-1.328,0.108-2.776,0.235-4.345,0.38c-0.072,2.317-0.139,4.629-0.199,6.934c-0.061,2.305-0.09,4.592-0.09,6.861
		c1.448-0.217,2.812-0.573,4.091-1.068c1.279-0.495,2.413-1.141,3.403-1.937c0.989-0.796,1.804-1.768,2.444-2.915
		c0.639-1.146,1.056-2.492,1.249-4.037c0.917-0.145,1.852-0.29,2.806-0.435c0.953-0.145,1.924-0.313,2.915-0.507
		c-0.049,0-0.073-0.012-0.073-0.036v-0.036h0.073c-0.483-0.531-0.984-1.007-1.503-1.43c-0.519-0.422-1.117-0.778-1.792-1.068
		c-0.676-0.29-1.46-0.507-2.354-0.652S156.845,23.208,155.614,23.208z"/>
	<path fill="#F0EADD" d="M239.612,54.599c-3.524,0.266-6.946,0.875-10.265,1.829c-3.319,0.953-6.692,2.263-10.12,3.928
		c-0.531-5.189-1.798-9.98-3.801-14.374c-0.966,0.217-1.943,0.387-2.933,0.507c-0.99,0.121-2.016,0.181-3.077,0.181
		c-0.411,0-0.815,0-1.213,0c-0.398,0-0.803-0.023-1.213-0.072c0.072,3.742,0.217,7.471,0.434,11.188
		c-0.772-0.121-1.545-0.199-2.317-0.235c-0.773-0.036-1.509-0.054-2.208-0.054c-2.39,0-5.009,0.271-7.857,0.814
		c-2.848,0.543-5.914,1.358-9.196,2.444c1.231-3.331,2.287-6.638,3.168-9.921c0.881-3.282,1.575-6.601,2.082-9.957
		c-1.642-1.086-3.048-2.148-4.218-3.186c-1.171-1.038-2.058-1.906-2.661-2.607c1.183,0.338,2.408,0.652,3.675,0.941
		c1.267,0.29,2.54,0.543,3.819,0.76c0.29-2.751,0.435-5.54,0.435-8.363v-1.34c-1.303,0.411-2.595,0.845-3.874,1.303
		c-1.28,0.459-2.559,0.966-3.838,1.521c0.748-2.414,1.123-4.646,1.123-6.698c0-1.713-0.217-3.336-0.652-4.87
		c-0.435-1.533-1.062-2.975-1.883-4.327c5.189-0.724,9.781-1.213,13.776-1.466c3.995-0.253,7.561-0.38,10.699-0.38
		c1.448,0,3.114,0.031,4.996,0.091c1.883,0.061,3.813,0.211,5.793,0.453c1.979,0.241,3.952,0.591,5.92,1.05
		c1.967,0.459,3.771,1.086,5.413,1.883c1.641,0.796,3.047,1.798,4.218,3.005c1.17,1.208,1.96,2.656,2.372,4.345
		c0.555-0.265,1.098-0.531,1.629-0.796c0.531-0.266,1.074-0.567,1.629-0.905c-0.29,1.738-0.773,3.47-1.448,5.196
		c-0.676,1.726-1.515,3.397-2.516,5.014c-1.002,1.618-2.161,3.15-3.476,4.598c-1.316,1.448-2.746,2.788-4.29,4.019
		C231.212,45.62,235.17,50.447,239.612,54.599z M215.064,23.208c-0.966,0-2.112,0.054-3.439,0.163
		c-1.328,0.108-2.776,0.235-4.345,0.38c-0.072,2.317-0.139,4.629-0.199,6.934c-0.061,2.305-0.09,4.592-0.09,6.861
		c1.448-0.217,2.812-0.573,4.091-1.068c1.279-0.495,2.413-1.141,3.403-1.937c0.989-0.796,1.804-1.768,2.444-2.915
		c0.639-1.146,1.056-2.492,1.249-4.037c0.917-0.145,1.852-0.29,2.806-0.435c0.953-0.145,1.924-0.313,2.915-0.507
		c-0.049,0-0.073-0.012-0.073-0.036v-0.036h0.073c-0.483-0.531-0.984-1.007-1.503-1.43c-0.519-0.422-1.117-0.778-1.792-1.068
		c-0.676-0.29-1.46-0.507-2.354-0.652S216.295,23.208,215.064,23.208z"/>
	<path fill="#F0EADD" d="M305.072,14.555c-4.948,3.838-9.613,7.881-13.994,12.129c-4.381,4.249-8.442,8.834-12.183,13.758h0.145
		c-0.217,1.376-0.266,2.8-0.145,4.272c0.12,1.473,0.362,2.951,0.724,4.435c0.362,1.485,0.814,2.945,1.357,4.381
		c0.543,1.436,1.128,2.806,1.756,4.109c-2.849-0.773-5.57-1.364-8.165-1.774c-2.595-0.41-5.087-0.615-7.477-0.615
		c-1.593,0-3.265,0.09-5.015,0.271c-1.75,0.181-3.615,0.44-5.594,0.778c1.424-2.727,2.607-5.485,3.548-8.273
		c0.941-2.788,1.544-5.69,1.81-8.708h0.072c-2.606-4.513-5.679-8.744-9.214-12.69c-3.536-3.946-7.585-7.597-12.147-10.952h0.435
		c1.81,0.266,3.578,0.465,5.304,0.597c1.725,0.133,3.445,0.199,5.159,0.199c3.766,0,7.604-0.519,11.514-1.557
		c2.003,5.672,4.839,10.343,8.508,14.012c1.955-1.858,3.663-3.995,5.123-6.409c1.46-2.413,2.649-5.044,3.566-7.893
		c1.955,0.434,3.856,0.754,5.703,0.959c1.846,0.206,3.626,0.308,5.34,0.308c2.1,0,4.26-0.114,6.481-0.344
		C299.907,15.321,302.369,14.989,305.072,14.555z"/>
	<path fill="#F0EADD" d="M393.017,16.619c-2.994,3.403-5.262,7.078-6.807,11.024c-1.545,3.947-2.317,8.213-2.317,12.799
		c0,2.414,0.205,4.852,0.615,7.314c0.41,2.462,1.05,4.96,1.919,7.495c-1.834,0.048-3.742,0.217-5.72,0.507
		c-1.69,0.266-3.561,0.658-5.612,1.177c-2.052,0.519-4.067,1.249-6.046,2.19c-1.521-3.958-3.391-7.736-5.612-11.333
		c-2.221-3.596-4.743-7.012-7.567-10.247c0.29,6.831-0.531,13.892-2.462,21.181c-4.394-1.376-8.424-2.063-12.093-2.063
		c-1.183,0-2.474,0.072-3.874,0.217c-1.4,0.145-2.896,0.35-4.489,0.616c3.017-3.403,5.316-7.084,6.897-11.043
		c1.581-3.958,2.372-8.291,2.372-12.998c0-1.521-0.097-3.095-0.29-4.725c-0.193-1.629-0.495-3.336-0.905-5.123
		c-1.497-1.134-3-2.227-4.507-3.277c-1.509-1.05-3.048-2.082-4.617-3.096c2.221,0.194,4.266,0.253,6.137,0.181
		c1.87-0.072,3.693-0.283,5.467-0.634c1.774-0.35,3.572-0.844,5.395-1.484c1.822-0.639,3.82-1.454,5.992-2.444l15.351,25.055
		c-0.145-1.159-0.241-2.317-0.29-3.476c-0.049-1.159-0.072-2.305-0.072-3.44c0-3.524,0.41-6.981,1.231-10.373
		c0.82-3.391,2.16-6.752,4.019-10.083c2.799,1.834,5.66,3.252,8.581,4.254C386.632,15.792,389.733,16.401,393.017,16.619z"/>
	<path fill="#F0EADD" d="M439.759,14.482c-0.845,0.676-1.642,1.382-2.39,2.118s-1.46,1.515-2.136,2.335
		c2.269,0.435,4.417,1.129,6.444,2.082c2.027,0.954,3.789,2.154,5.286,3.603c1.496,1.448,2.685,3.132,3.566,5.051
		c0.881,1.919,1.321,4.049,1.321,6.39c0,2.656-0.44,5.051-1.321,7.187c-0.882,2.136-2.1,4.043-3.657,5.721
		c-1.557,1.678-3.397,3.126-5.521,4.345s-4.429,2.221-6.915,3.005s-5.104,1.37-7.856,1.756s-5.527,0.58-8.327,0.58
		c-0.99,0-2.016-0.018-3.078-0.054c-1.062-0.037-2.094-0.091-3.096-0.163s-1.931-0.175-2.787-0.308
		c-0.857-0.133-1.575-0.296-2.154-0.489c0.675-0.556,1.321-1.117,1.937-1.684s1.177-1.141,1.684-1.72
		c-2.293-0.435-4.447-1.086-6.463-1.956c-2.016-0.869-3.783-1.985-5.304-3.349s-2.722-2.969-3.603-4.815
		c-0.882-1.847-1.321-3.965-1.321-6.354c0-2.8,0.512-5.328,1.538-7.585c1.026-2.257,2.432-4.266,4.218-6.028
		c1.786-1.762,3.887-3.271,6.301-4.526c2.413-1.255,5.008-2.293,7.784-3.114c2.775-0.82,5.666-1.424,8.671-1.81
		c3.005-0.386,5.992-0.58,8.961-0.58c1.231,0,2.492,0.031,3.784,0.091c1.29,0.061,2.648,0.151,4.072,0.271H439.759z M436.139,33.527
		c0-2.051-0.441-3.729-1.322-5.033s-2.045-2.341-3.493-3.114c-0.267,0.628-0.52,1.273-0.761,1.937
		c-0.241,0.664-0.459,1.346-0.651,2.046c-1.69-0.483-3.108-0.809-4.255-0.978c-1.146-0.168-2.105-0.253-2.878-0.253
		c-1.521,0-3.054,0.253-4.598,0.761c-1.546,0.507-2.934,1.237-4.164,2.19c-1.231,0.954-2.239,2.112-3.023,3.476
		c-0.784,1.364-1.177,2.903-1.177,4.616c0,1.642,0.417,3.145,1.249,4.508c0.833,1.364,1.925,2.625,3.277,3.784
		c0.217-0.748,0.38-1.508,0.488-2.281c0.108-0.772,0.187-1.569,0.235-2.39c1.786,0.821,3.367,1.388,4.743,1.702
		c1.376,0.314,2.582,0.471,3.62,0.471c1.594,0,3.15-0.259,4.671-0.778c1.521-0.519,2.879-1.273,4.073-2.263s2.154-2.19,2.878-3.603
		C435.776,36.912,436.139,35.313,436.139,33.527z"/>
	<path fill="#F0EADD" d="M490.375,56.373c-0.579,0-1.056-0.005-1.43-0.018c-0.375-0.012-0.677-0.018-0.905-0.018
		c-0.229,0-0.404-0.005-0.525-0.018c-0.121-0.012-0.229-0.018-0.326-0.018c-2.703,0-5.431,0.193-8.182,0.579
		c-2.752,0.386-5.553,1.026-8.4,1.919c-0.049-0.555-0.072-1.171-0.072-1.846c0-0.676,0-1.291,0-1.847
		c0-5.455,0.422-10.699,1.268-15.731c0.844-5.033,2.269-9.95,4.271-14.754c-3.451,0.386-6.939,0.996-10.463,1.828
		c-3.524,0.833-7,1.937-10.428,3.313c0.435-1.738,0.767-3.379,0.996-4.924c0.229-1.544,0.344-3.042,0.344-4.49
		c0-1.352-0.091-2.721-0.271-4.109c-0.181-1.388-0.44-2.793-0.778-4.218c4.199,0.821,8.43,1.509,12.69,2.063
		c4.26,0.556,8.526,0.905,12.799,1.05c0.675-1.038,1.369-2.088,2.081-3.15s1.479-2.112,2.3-3.15
		c-0.121,1.086-0.212,2.148-0.271,3.186c-0.061,1.038-0.115,2.1-0.163,3.186h0.217c2.728,0,5.473-0.096,8.237-0.29
		c2.764-0.193,5.726-0.519,8.889-0.978c-0.483,0.845-0.888,1.738-1.213,2.679c-0.326,0.941-0.489,2.1-0.489,3.476
		c0,0.773,0.078,1.636,0.235,2.589c0.157,0.954,0.429,2.045,0.814,3.276c-2.655-0.603-5.395-1.062-8.219-1.375
		c-2.824-0.313-5.672-0.471-8.544-0.471c0.145,5.479,0.657,10.892,1.538,16.238C487.255,45.698,488.589,51.039,490.375,56.373z"/>
	<path fill="#F0EADD" d="M591.534,31.752c0.072,0.531,0.114,1.05,0.127,1.557c0.012,0.507,0.018,1.002,0.018,1.484
		c0,2.535-0.393,4.912-1.177,7.133s-1.864,4.26-3.24,6.119c-1.376,1.859-2.999,3.524-4.869,4.997
		c-1.871,1.472-3.905,2.715-6.102,3.729s-4.495,1.792-6.896,2.335c-2.402,0.543-4.81,0.814-7.224,0.814
		c-2.269,0-4.453-0.097-6.553-0.29c-2.101-0.193-4.092-0.29-5.975-0.29c-1.448,0-2.812,0.102-4.091,0.308
		c-1.28,0.205-2.462,0.621-3.549,1.249c-0.893-3.307-1.841-6.306-2.842-8.997c-1.002-2.691-1.925-4.99-2.77-6.897
		c-0.99-2.22-1.979-4.211-2.969-5.974c2.872,1.497,5.75,2.679,8.635,3.548c2.884,0.869,5.63,1.539,8.237,2.01
		c2.606,0.471,4.983,0.772,7.132,0.905c2.148,0.133,3.935,0.199,5.359,0.199c1.593,0,3.197-0.096,4.815-0.29
		c1.616-0.193,3.246-0.495,4.888-0.905c-0.411-0.555-0.833-1.05-1.268-1.484s-0.833-0.784-1.194-1.05
		c-0.435-0.313-0.857-0.58-1.268-0.797c-0.7-0.337-1.647-0.669-2.842-0.996c-1.195-0.326-2.523-0.682-3.983-1.068
		c-1.46-0.386-3.018-0.809-4.67-1.267c-1.654-0.458-3.295-0.99-4.925-1.593c-1.629-0.603-3.186-1.291-4.67-2.064
		c-1.484-0.772-2.807-1.653-3.965-2.643c-0.918-0.797-1.678-1.66-2.281-2.589s-1.08-1.883-1.43-2.86
		c-0.351-0.978-0.604-1.955-0.761-2.933s-0.247-1.913-0.271-2.806c-0.845,0.338-1.605,0.664-2.281,0.978
		c-0.676,0.314-1.255,0.58-1.737,0.797l-1.448,0.724c0.869-2.607,2.082-4.912,3.639-6.916c1.557-2.003,3.307-3.741,5.25-5.214
		c1.942-1.472,4.019-2.715,6.228-3.729c2.208-1.014,4.398-1.847,6.571-2.498c5.068-1.521,10.56-2.39,16.474-2.607
		c1.834,0,3.789-0.073,5.865-0.217c1.786-0.121,3.825-0.308,6.119-0.561c2.293-0.254,4.706-0.622,7.241-1.104
		c-0.773,1.159-1.395,2.414-1.865,3.766c-0.471,1.352-0.839,2.715-1.104,4.091c-0.267,1.376-0.447,2.734-0.544,4.073
		c-0.097,1.34-0.145,2.565-0.145,3.675c0,0.748,0.012,1.424,0.036,2.027c0.024,0.604,0.061,1.123,0.108,1.557
		c0.049,0.507,0.109,0.966,0.182,1.376c-4.225-1.906-8.34-3.24-12.347-4c-4.007-0.761-7.881-1.141-11.622-1.141
		c-1.279,0-2.498,0.042-3.656,0.126c-1.159,0.085-2.317,0.199-3.477,0.344c0.266,1.159,0.742,2.124,1.431,2.896
		c0.688,0.772,1.382,1.4,2.082,1.883c0.82,0.555,1.701,0.99,2.643,1.303c1.834,0.579,3.825,1.285,5.975,2.118
		c2.147,0.833,4.296,1.864,6.444,3.096c2.147,1.231,4.212,2.679,6.191,4.345c1.979,1.665,3.717,3.597,5.213,5.793
		c0.918-0.772,1.811-1.623,2.68-2.553C589.978,33.847,590.786,32.839,591.534,31.752z"/>
	<path fill="#F0EADD" d="M640.847,14.482c-0.845,0.676-1.642,1.382-2.39,2.118s-1.46,1.515-2.136,2.335
		c2.269,0.435,4.417,1.129,6.444,2.082c2.027,0.954,3.789,2.154,5.286,3.603c1.496,1.448,2.685,3.132,3.566,5.051
		c0.881,1.919,1.321,4.049,1.321,6.39c0,2.656-0.44,5.051-1.321,7.187c-0.882,2.136-2.1,4.043-3.657,5.721
		c-1.557,1.678-3.397,3.126-5.521,4.345s-4.429,2.221-6.915,3.005s-5.104,1.37-7.856,1.756s-5.527,0.58-8.327,0.58
		c-0.99,0-2.016-0.018-3.078-0.054c-1.062-0.037-2.094-0.091-3.096-0.163s-1.931-0.175-2.787-0.308
		c-0.857-0.133-1.575-0.296-2.154-0.489c0.675-0.556,1.321-1.117,1.937-1.684s1.177-1.141,1.684-1.72
		c-2.293-0.435-4.447-1.086-6.463-1.956c-2.016-0.869-3.783-1.985-5.304-3.349s-2.722-2.969-3.603-4.815
		c-0.882-1.847-1.321-3.965-1.321-6.354c0-2.8,0.512-5.328,1.538-7.585c1.026-2.257,2.432-4.266,4.218-6.028
		c1.786-1.762,3.887-3.271,6.301-4.526c2.413-1.255,5.008-2.293,7.784-3.114c2.775-0.82,5.666-1.424,8.671-1.81
		c3.005-0.386,5.992-0.58,8.961-0.58c1.231,0,2.492,0.031,3.784,0.091c1.29,0.061,2.648,0.151,4.072,0.271H640.847z M637.227,33.527
		c0-2.051-0.441-3.729-1.322-5.033s-2.045-2.341-3.493-3.114c-0.267,0.628-0.52,1.273-0.761,1.937
		c-0.241,0.664-0.459,1.346-0.651,2.046c-1.69-0.483-3.108-0.809-4.255-0.978c-1.146-0.168-2.105-0.253-2.878-0.253
		c-1.521,0-3.054,0.253-4.598,0.761c-1.546,0.507-2.934,1.237-4.164,2.19c-1.231,0.954-2.239,2.112-3.023,3.476
		c-0.784,1.364-1.177,2.903-1.177,4.616c0,1.642,0.417,3.145,1.249,4.508c0.833,1.364,1.925,2.625,3.277,3.784
		c0.217-0.748,0.38-1.508,0.488-2.281c0.108-0.772,0.187-1.569,0.235-2.39c1.786,0.821,3.367,1.388,4.743,1.702
		c1.376,0.314,2.582,0.471,3.62,0.471c1.594,0,3.15-0.259,4.671-0.778c1.521-0.519,2.879-1.273,4.073-2.263s2.154-2.19,2.878-3.603
		C636.864,36.912,637.227,35.313,637.227,33.527z"/>
	<path fill="#F0EADD" d="M713.585,54.599c-3.524,0.266-6.946,0.875-10.265,1.829c-3.319,0.953-6.692,2.263-10.119,3.928
		c-0.531-5.189-1.799-9.98-3.802-14.374c-0.966,0.217-1.943,0.387-2.933,0.507c-0.99,0.121-2.016,0.181-3.078,0.181
		c-0.41,0-0.814,0-1.213,0s-0.803-0.023-1.213-0.072c0.072,3.742,0.218,7.471,0.435,11.188c-0.772-0.121-1.545-0.199-2.317-0.235
		s-1.509-0.054-2.208-0.054c-2.39,0-5.009,0.271-7.856,0.814c-2.849,0.543-5.914,1.358-9.196,2.444
		c1.23-3.331,2.286-6.638,3.168-9.921c0.881-3.282,1.574-6.601,2.081-9.957c-1.642-1.086-3.047-2.148-4.218-3.186
		c-1.171-1.038-2.058-1.906-2.661-2.607c1.183,0.338,2.408,0.652,3.675,0.941c1.268,0.29,2.54,0.543,3.82,0.76
		c0.289-2.751,0.435-5.54,0.435-8.363v-1.34c-1.304,0.411-2.596,0.845-3.874,1.303c-1.28,0.459-2.56,0.966-3.838,1.521
		c0.747-2.414,1.122-4.646,1.122-6.698c0-1.713-0.218-3.336-0.651-4.87c-0.435-1.533-1.062-2.975-1.883-4.327
		c5.189-0.724,9.781-1.213,13.776-1.466c3.994-0.253,7.561-0.38,10.698-0.38c1.448,0,3.114,0.031,4.997,0.091
		c1.883,0.061,3.813,0.211,5.793,0.453c1.979,0.241,3.952,0.591,5.919,1.05c1.968,0.459,3.771,1.086,5.413,1.883
		c1.642,0.796,3.047,1.798,4.218,3.005c1.171,1.208,1.961,2.656,2.372,4.345c0.555-0.265,1.098-0.531,1.629-0.796
		s1.074-0.567,1.63-0.905c-0.29,1.738-0.773,3.47-1.448,5.196c-0.677,1.726-1.516,3.397-2.517,5.014
		c-1.002,1.618-2.16,3.15-3.476,4.598c-1.316,1.448-2.746,2.788-4.291,4.019C705.185,45.62,709.144,50.447,713.585,54.599z
		 M689.037,23.208c-0.966,0-2.112,0.054-3.439,0.163c-1.328,0.108-2.776,0.235-4.345,0.38c-0.072,2.317-0.14,4.629-0.199,6.934
		c-0.061,2.305-0.091,4.592-0.091,6.861c1.448-0.217,2.812-0.573,4.092-1.068c1.279-0.495,2.413-1.141,3.403-1.937
		c0.989-0.796,1.804-1.768,2.443-2.915c0.64-1.146,1.056-2.492,1.249-4.037c0.918-0.145,1.853-0.29,2.807-0.435
		c0.953-0.145,1.925-0.313,2.914-0.507c-0.049,0-0.072-0.012-0.072-0.036v-0.036h0.072c-0.482-0.531-0.983-1.007-1.502-1.43
		c-0.52-0.422-1.117-0.778-1.793-1.068c-0.676-0.29-1.46-0.507-2.353-0.652C691.33,23.28,690.269,23.208,689.037,23.208z"/>
	<path fill="#F0EADD" d="M773.035,54.599c-3.524,0.266-6.946,0.875-10.265,1.829c-3.319,0.953-6.692,2.263-10.119,3.928
		c-0.531-5.189-1.799-9.98-3.802-14.374c-0.966,0.217-1.943,0.387-2.933,0.507c-0.99,0.121-2.016,0.181-3.078,0.181
		c-0.41,0-0.814,0-1.213,0s-0.803-0.023-1.213-0.072c0.072,3.742,0.218,7.471,0.435,11.188c-0.772-0.121-1.545-0.199-2.317-0.235
		s-1.509-0.054-2.208-0.054c-2.39,0-5.009,0.271-7.856,0.814c-2.849,0.543-5.914,1.358-9.196,2.444
		c1.23-3.331,2.286-6.638,3.168-9.921c0.881-3.282,1.574-6.601,2.081-9.957c-1.642-1.086-3.047-2.148-4.218-3.186
		c-1.171-1.038-2.058-1.906-2.661-2.607c1.183,0.338,2.408,0.652,3.675,0.941c1.268,0.29,2.54,0.543,3.82,0.76
		c0.289-2.751,0.435-5.54,0.435-8.363v-1.34c-1.304,0.411-2.596,0.845-3.874,1.303c-1.28,0.459-2.56,0.966-3.838,1.521
		c0.747-2.414,1.122-4.646,1.122-6.698c0-1.713-0.218-3.336-0.651-4.87c-0.435-1.533-1.062-2.975-1.883-4.327
		c5.189-0.724,9.781-1.213,13.776-1.466c3.994-0.253,7.561-0.38,10.698-0.38c1.448,0,3.114,0.031,4.997,0.091
		c1.883,0.061,3.813,0.211,5.793,0.453c1.979,0.241,3.952,0.591,5.919,1.05c1.968,0.459,3.771,1.086,5.413,1.883
		c1.642,0.796,3.047,1.798,4.218,3.005c1.171,1.208,1.961,2.656,2.372,4.345c0.555-0.265,1.098-0.531,1.629-0.796
		s1.074-0.567,1.63-0.905c-0.29,1.738-0.773,3.47-1.448,5.196c-0.677,1.726-1.516,3.397-2.517,5.014
		c-1.002,1.618-2.16,3.15-3.476,4.598c-1.316,1.448-2.746,2.788-4.291,4.019C764.635,45.62,768.594,50.447,773.035,54.599z
		 M748.487,23.208c-0.966,0-2.112,0.054-3.439,0.163c-1.328,0.108-2.776,0.235-4.345,0.38c-0.072,2.317-0.14,4.629-0.199,6.934
		c-0.061,2.305-0.091,4.592-0.091,6.861c1.448-0.217,2.812-0.573,4.092-1.068c1.279-0.495,2.413-1.141,3.403-1.937
		c0.989-0.796,1.804-1.768,2.443-2.915c0.64-1.146,1.056-2.492,1.249-4.037c0.918-0.145,1.853-0.29,2.807-0.435
		c0.953-0.145,1.925-0.313,2.914-0.507c-0.049,0-0.072-0.012-0.072-0.036v-0.036h0.072c-0.482-0.531-0.983-1.007-1.502-1.43
		c-0.52-0.422-1.117-0.778-1.793-1.068c-0.676-0.29-1.46-0.507-2.353-0.652C750.78,23.28,749.719,23.208,748.487,23.208z"/>
	<path fill="#F0EADD" d="M838.495,14.555c-4.948,3.838-9.612,7.881-13.993,12.129c-4.381,4.249-8.442,8.834-12.184,13.758h0.145
		c-0.217,1.376-0.266,2.8-0.145,4.272c0.12,1.473,0.362,2.951,0.724,4.435c0.362,1.485,0.815,2.945,1.358,4.381
		s1.128,2.806,1.756,4.109c-2.849-0.773-5.57-1.364-8.165-1.774c-2.595-0.41-5.087-0.615-7.477-0.615
		c-1.593,0-3.265,0.09-5.014,0.271c-1.751,0.181-3.615,0.44-5.595,0.778c1.425-2.727,2.607-5.485,3.549-8.273
		c0.941-2.788,1.544-5.69,1.811-8.708h0.072c-2.607-4.513-5.679-8.744-9.215-12.69c-3.536-3.946-7.585-7.597-12.147-10.952h0.435
		c1.811,0.266,3.578,0.465,5.305,0.597c1.726,0.133,3.445,0.199,5.159,0.199c3.766,0,7.604-0.519,11.514-1.557
		c2.003,5.672,4.839,10.343,8.508,14.012c1.956-1.858,3.663-3.995,5.124-6.409c1.46-2.413,2.648-5.044,3.565-7.893
		c1.956,0.434,3.856,0.754,5.703,0.959c1.847,0.206,3.626,0.308,5.34,0.308c2.101,0,4.26-0.114,6.481-0.344
		C833.329,15.321,835.792,14.989,838.495,14.555z"/>
	<path fill="#F0EADD" d="M168.653,169.988h-16.572c-1.41,0-2.43-0.314-3.059-0.945c-0.631-0.629-0.946-1.649-0.946-3.059V93.91
		c0-1.408,0.315-2.428,0.946-3.059c0.629-0.629,1.649-0.945,3.059-0.945h17.907c1.185,0,2.169,0.261,2.947,0.779
		c0.779,0.52,1.501,1.373,2.169,2.558l10.01,18.13c0.37,0.667,0.685,1.15,0.945,1.445c0.259,0.298,0.612,0.445,1.057,0.445h1.001
		c0.445,0,0.796-0.147,1.057-0.445c0.259-0.295,0.574-0.778,0.946-1.445l9.899-18.13c0.667-1.186,1.39-2.039,2.169-2.558
		c0.778-0.518,1.76-0.779,2.947-0.779h18.019c1.408,0,2.428,0.316,3.059,0.945c0.629,0.631,0.945,1.651,0.945,3.059v72.074
		c0,1.409-0.316,2.43-0.945,3.059c-0.631,0.631-1.651,0.945-3.059,0.945h-17.129c-1.409,0-2.429-0.314-3.059-0.945
		c-0.631-0.629-0.945-1.649-0.945-3.059v-39.151l-6.562,12.123c-0.667,1.262-1.465,2.169-2.391,2.726
		c-0.928,0.556-2.096,0.834-3.503,0.834h-4.449c-1.409,0-2.577-0.278-3.503-0.834c-0.928-0.557-1.724-1.464-2.392-2.726
		l-6.562-12.123v39.151c0,1.409-0.316,2.43-0.946,3.059C171.082,169.673,170.061,169.988,168.653,169.988z M187.228,127.167
		c-1.334,0-2.299-0.296-2.892-0.89c-0.595-0.593-1.521-1.854-2.781-3.782l-13.569-20.688c-0.445-0.74-0.965-1.241-1.557-1.502
		c-0.595-0.259-1.187-0.389-1.78-0.389h-1.891c-0.965,0-1.688,0.277-2.169,0.834c-0.483,0.556-0.723,1.429-0.723,2.613v56.614h1.112
		v-56.614c0-0.593,0.111-1.129,0.333-1.612c0.223-0.481,0.704-0.723,1.446-0.723h1.668c0.518,0,0.982,0.074,1.391,0.222
		c0.407,0.149,0.834,0.595,1.279,1.335l13.569,20.466c1.335,2.002,2.354,3.375,3.059,4.115c0.704,0.742,1.872,1.112,3.503,1.112
		c1.63,0,2.798-0.37,3.503-1.112c0.704-0.74,1.724-2.113,3.059-4.115l13.569-20.466c0.445-0.74,0.852-1.186,1.223-1.335
		c0.371-0.147,0.815-0.222,1.335-0.222h1.668c0.74,0,1.241,0.241,1.501,0.723c0.259,0.483,0.389,1.02,0.389,1.612v56.614h1.112
		v-56.614c0-1.185-0.242-2.058-0.723-2.613c-0.483-0.557-1.242-0.834-2.28-0.834h-1.891c-0.594,0-1.167,0.13-1.724,0.389
		c-0.556,0.261-1.057,0.762-1.502,1.502L192.9,122.495c-1.262,1.929-2.188,3.189-2.78,3.782
		C189.525,126.871,188.562,127.167,187.228,127.167z"/>
	<path fill="#F0EADD" d="M265.196,165.984c0,1.409-0.316,2.43-0.945,3.059c-0.631,0.631-1.651,0.945-3.059,0.945h-16.35
		c-1.41,0-2.43-0.314-3.059-0.945c-0.631-0.629-0.945-1.649-0.945-3.059v-29.363c0-2.225,0.351-4.783,1.057-7.675
		c0.704-2.892,1.797-6.265,3.281-10.121l9.677-25.249c0.445-1.26,1.129-2.186,2.058-2.781c0.926-0.592,2.131-0.89,3.615-0.89h29.919
		c1.408,0,2.576,0.297,3.504,0.89c0.926,0.595,1.613,1.521,2.058,2.781l9.676,25.249c1.482,3.856,2.576,7.229,3.281,10.121
		c0.704,2.892,1.057,5.45,1.057,7.675v29.363c0,1.409-0.316,2.43-0.945,3.059c-0.631,0.631-1.651,0.945-3.059,0.945h-16.795
		c-1.484,0-2.578-0.314-3.281-0.945c-0.706-0.629-1.057-1.649-1.057-3.059v-15.571h-19.687V165.984z M297.118,159.978h1.112v-23.691
		c0-2.075-0.167-3.985-0.501-5.729c-0.333-1.741-0.797-3.429-1.39-5.061l-7.674-18.129c-0.89-2.15-1.835-3.93-2.836-5.339
		c-1.001-1.408-2.725-2.113-5.172-2.113h-10.9c-2.522,0-4.301,0.705-5.339,2.113c-1.04,1.409-1.966,3.152-2.781,5.228l-7.118,18.24
		c-0.595,1.632-1.057,3.319-1.391,5.061c-0.333,1.743-0.5,3.653-0.5,5.729v23.691h1.112v-19.131h43.378V159.978z M253.74,136.287
		c0-2.002,0.167-3.854,0.5-5.562c0.333-1.704,0.759-3.298,1.279-4.782l7.118-18.241c0.74-1.853,1.557-3.429,2.447-4.727
		c0.89-1.297,2.447-1.946,4.671-1.946h10.9c2.075,0,3.559,0.649,4.449,1.946c0.89,1.298,1.742,2.911,2.559,4.838l7.674,18.13
		c0.518,1.484,0.945,3.078,1.279,4.782c0.333,1.707,0.5,3.56,0.5,5.562v3.448H253.74V136.287z M271.536,113.263l-5.228,16.906
		h17.462l-5.228-16.906c-0.297-0.667-0.612-1.148-0.945-1.446c-0.334-0.295-0.723-0.444-1.168-0.444h-2.781
		c-0.445,0-0.834,0.149-1.168,0.444C272.148,112.115,271.832,112.596,271.536,113.263z"/>
	<path fill="#F0EADD" d="M376.977,169.988h-27.139c-9.27,0-16.147-1.853-20.632-5.562c-4.487-3.707-6.729-9.416-6.729-17.128
		v-34.592c0-7.711,2.242-13.438,6.729-17.184c4.485-3.744,11.362-5.617,20.632-5.617h27.139c1.408,0,2.428,0.316,3.059,0.945
		c0.629,0.631,0.946,1.651,0.946,3.059v13.458c0,1.409-0.316,2.429-0.946,3.059c-0.631,0.631-1.651,0.945-3.059,0.945h-22.356
		c-2.299,0-4.004,0.464-5.117,1.39c-1.112,0.929-1.668,2.318-1.668,4.171v26.472c0,1.854,0.556,3.208,1.668,4.06
		c1.112,0.854,2.817,1.279,5.117,1.279h22.356c1.408,0,2.428,0.316,3.059,0.945c0.629,0.631,0.946,1.651,0.946,3.059v13.236
		c0,1.409-0.316,2.43-0.946,3.059C379.405,169.673,378.385,169.988,376.977,169.988z M370.86,158.866h-18.575
		c-6.673,0-11.123-1.001-13.347-3.004c-2.224-2.002-3.336-5.411-3.336-10.232v-31.143c0-4.895,1.148-8.359,3.448-10.399
		c2.298-2.039,6.71-3.059,13.236-3.059h18.575v-1.112h-18.575c-7.118,0-11.865,1.112-14.237,3.336
		c-2.374,2.225-3.559,5.97-3.559,11.234v31.143c0,5.116,1.168,8.787,3.503,11.012c2.336,2.225,7.1,3.337,14.292,3.337h18.575
		V158.866z"/>
	<path fill="#F0EADD" d="M414.793,169.988h-17.24c-1.409,0-2.43-0.314-3.059-0.945c-0.631-0.629-0.945-1.649-0.945-3.059V93.91
		c0-1.408,0.314-2.428,0.945-3.059c0.629-0.629,1.649-0.945,3.059-0.945h17.24c1.407,0,2.428,0.316,3.059,0.945
		c0.629,0.631,0.945,1.651,0.945,3.059v24.135h18.574V93.91c0-1.408,0.314-2.428,0.945-3.059c0.629-0.629,1.649-0.945,3.059-0.945
		h17.24c1.407,0,2.428,0.316,3.059,0.945c0.629,0.631,0.945,1.651,0.945,3.059v72.074c0,1.409-0.316,2.43-0.945,3.059
		c-0.631,0.631-1.651,0.945-3.059,0.945h-17.24c-1.409,0-2.43-0.314-3.059-0.945c-0.631-0.629-0.945-1.649-0.945-3.059v-24.692
		h-18.574v24.692c0,1.409-0.316,2.43-0.945,3.059C417.221,169.673,416.2,169.988,414.793,169.988z M405.561,159.978h1.112v-29.475
		h42.711v29.475h1.112V99.917h-1.112v29.475h-42.711V99.917h-1.112V159.978z"/>
	<path fill="#F0EADD" d="M480.191,169.988c-1.41,0-2.43-0.314-3.06-0.945c-0.63-0.629-0.945-1.649-0.945-3.059v-13.236
		c0-1.407,0.315-2.428,0.945-3.059c0.63-0.629,1.649-0.945,3.06-0.945h11.011v-37.371h-11.011c-1.41,0-2.43-0.314-3.06-0.945
		c-0.63-0.63-0.945-1.649-0.945-3.059V93.91c0-1.408,0.315-2.428,0.945-3.059c0.63-0.629,1.649-0.945,3.06-0.945h47.382
		c1.407,0,2.428,0.316,3.059,0.945c0.629,0.631,0.945,1.651,0.945,3.059v13.458c0,1.409-0.316,2.429-0.945,3.059
		c-0.631,0.631-1.651,0.945-3.059,0.945h-10.789v37.371h10.789c1.407,0,2.428,0.316,3.059,0.945
		c0.629,0.631,0.945,1.651,0.945,3.059v13.236c0,1.409-0.316,2.43-0.945,3.059c-0.631,0.631-1.651,0.945-3.059,0.945H480.191z
		 M521.566,159.978v-1.112h-17.018v-57.837h17.018v-1.112h-35.369v1.112h17.24v57.837h-17.24v1.112H521.566z"/>
	<path fill="#F0EADD" d="M565.945,169.988h-16.684c-1.409,0-2.43-0.314-3.059-0.945c-0.631-0.629-0.945-1.649-0.945-3.059V93.91
		c0-1.408,0.314-2.428,0.945-3.059c0.629-0.629,1.649-0.945,3.059-0.945h11.567c1.407,0,2.613,0.223,3.614,0.667
		c1.002,0.445,1.983,1.224,2.948,2.335l21.577,24.692V93.91c0-1.408,0.314-2.428,0.945-3.059c0.629-0.629,1.649-0.945,3.059-0.945
		h16.685c1.407,0,2.428,0.316,3.059,0.945c0.629,0.631,0.945,1.651,0.945,3.059v72.074c0,1.409-0.316,2.43-0.945,3.059
		c-0.631,0.631-1.651,0.945-3.059,0.945h-16.685c-1.409,0-2.43-0.314-3.059-0.945c-0.631-0.629-0.945-1.649-0.945-3.059v-13.681
		l-19.02-23.023v36.704c0,1.409-0.316,2.43-0.945,3.059C568.373,169.673,567.354,169.988,565.945,169.988z M559.939,100.806
		c-0.372-0.37-0.668-0.629-0.89-0.779c-0.223-0.147-0.483-0.222-0.779-0.222c-0.297,0-0.594,0.111-0.89,0.333
		c-0.297,0.223-0.444,0.557-0.444,1.001v58.839h1.112v-58.616c0-0.073,0.017-0.147,0.056-0.223c0.036-0.072,0.092-0.11,0.166-0.11
		c0.073,0,0.167,0.038,0.278,0.11c0.111,0.075,0.203,0.149,0.278,0.223l42.043,47.159v11.457h1.112V99.917h-1.112v46.937
		L559.939,100.806z"/>
	<path fill="#F0EADD" d="M684.621,169.988h-51.608c-1.409,0-2.43-0.314-3.059-0.945c-0.631-0.629-0.945-1.649-0.945-3.059V93.91
		c0-1.408,0.314-2.428,0.945-3.059c0.629-0.629,1.649-0.945,3.059-0.945h51.608c1.407,0,2.428,0.316,3.059,0.945
		c0.629,0.631,0.945,1.651,0.945,3.059v13.013c0,1.409-0.316,2.43-0.945,3.059c-0.631,0.631-1.651,0.945-3.059,0.945h-30.698v8.564
		h21.688c1.408,0,2.429,0.316,3.06,0.945c0.629,0.631,0.945,1.651,0.945,3.059v11.901c0,1.409-0.316,2.43-0.945,3.059
		c-0.631,0.631-1.651,0.945-3.06,0.945h-21.688v9.565h30.698c1.407,0,2.428,0.316,3.059,0.945c0.629,0.631,0.945,1.651,0.945,3.059
		v13.014c0,1.409-0.316,2.43-0.945,3.059C687.049,169.673,686.028,169.988,684.621,169.988z M678.615,158.866h-36.371v-28.808
		h27.361v-1.112h-27.361v-27.917h36.371v-1.112h-37.483v60.062h37.483V158.866z"/>
</g>
</svg>
